%TF.GenerationSoftware,KiCad,Pcbnew,5.0.0+dfsg1-2*%
%TF.CreationDate,2019-12-09T14:25:11+01:00*%
%TF.ProjectId,pmod2,706D6F64322E6B696361645F70636200,rev?*%
%TF.SameCoordinates,Original*%
%TF.FileFunction,Soldermask,Bot*%
%TF.FilePolarity,Negative*%
%FSLAX46Y46*%
G04 Gerber Fmt 4.6, Leading zero omitted, Abs format (unit mm)*
G04 Created by KiCad (PCBNEW 5.0.0+dfsg1-2) date Mon Dec  9 14:25:11 2019*
%MOMM*%
%LPD*%
G01*
G04 APERTURE LIST*
%ADD10C,0.100000*%
%ADD11C,1.550000*%
%ADD12R,2.100000X2.100000*%
%ADD13O,2.100000X2.100000*%
%ADD14R,2.800000X2.000000*%
%ADD15O,2.800000X2.000000*%
%ADD16R,2.000000X2.800000*%
%ADD17O,2.000000X2.800000*%
%ADD18O,2.000000X1.300000*%
G04 APERTURE END LIST*
D10*
G36*
X137696071Y-120601623D02*
X137728781Y-120606475D01*
X137760857Y-120614509D01*
X137791991Y-120625649D01*
X137821884Y-120639787D01*
X137850247Y-120656787D01*
X137876807Y-120676485D01*
X137901308Y-120698692D01*
X137923515Y-120723193D01*
X137943213Y-120749753D01*
X137960213Y-120778116D01*
X137974351Y-120808009D01*
X137985491Y-120839143D01*
X137993525Y-120871219D01*
X137998377Y-120903929D01*
X138000000Y-120936956D01*
X138000000Y-122063044D01*
X137998377Y-122096071D01*
X137993525Y-122128781D01*
X137985491Y-122160857D01*
X137974351Y-122191991D01*
X137960213Y-122221884D01*
X137943213Y-122250247D01*
X137923515Y-122276807D01*
X137901308Y-122301308D01*
X137876807Y-122323515D01*
X137850247Y-122343213D01*
X137821884Y-122360213D01*
X137791991Y-122374351D01*
X137760857Y-122385491D01*
X137728781Y-122393525D01*
X137696071Y-122398377D01*
X137663044Y-122400000D01*
X136786956Y-122400000D01*
X136753929Y-122398377D01*
X136721219Y-122393525D01*
X136689143Y-122385491D01*
X136658009Y-122374351D01*
X136628116Y-122360213D01*
X136599753Y-122343213D01*
X136573193Y-122323515D01*
X136548692Y-122301308D01*
X136526485Y-122276807D01*
X136506787Y-122250247D01*
X136489787Y-122221884D01*
X136475649Y-122191991D01*
X136464509Y-122160857D01*
X136456475Y-122128781D01*
X136451623Y-122096071D01*
X136450000Y-122063044D01*
X136450000Y-120936956D01*
X136451623Y-120903929D01*
X136456475Y-120871219D01*
X136464509Y-120839143D01*
X136475649Y-120808009D01*
X136489787Y-120778116D01*
X136506787Y-120749753D01*
X136526485Y-120723193D01*
X136548692Y-120698692D01*
X136573193Y-120676485D01*
X136599753Y-120656787D01*
X136628116Y-120639787D01*
X136658009Y-120625649D01*
X136689143Y-120614509D01*
X136721219Y-120606475D01*
X136753929Y-120601623D01*
X136786956Y-120600000D01*
X137663044Y-120600000D01*
X137696071Y-120601623D01*
X137696071Y-120601623D01*
G37*
D11*
X137225000Y-121500000D03*
D10*
G36*
X139746071Y-120601623D02*
X139778781Y-120606475D01*
X139810857Y-120614509D01*
X139841991Y-120625649D01*
X139871884Y-120639787D01*
X139900247Y-120656787D01*
X139926807Y-120676485D01*
X139951308Y-120698692D01*
X139973515Y-120723193D01*
X139993213Y-120749753D01*
X140010213Y-120778116D01*
X140024351Y-120808009D01*
X140035491Y-120839143D01*
X140043525Y-120871219D01*
X140048377Y-120903929D01*
X140050000Y-120936956D01*
X140050000Y-122063044D01*
X140048377Y-122096071D01*
X140043525Y-122128781D01*
X140035491Y-122160857D01*
X140024351Y-122191991D01*
X140010213Y-122221884D01*
X139993213Y-122250247D01*
X139973515Y-122276807D01*
X139951308Y-122301308D01*
X139926807Y-122323515D01*
X139900247Y-122343213D01*
X139871884Y-122360213D01*
X139841991Y-122374351D01*
X139810857Y-122385491D01*
X139778781Y-122393525D01*
X139746071Y-122398377D01*
X139713044Y-122400000D01*
X138836956Y-122400000D01*
X138803929Y-122398377D01*
X138771219Y-122393525D01*
X138739143Y-122385491D01*
X138708009Y-122374351D01*
X138678116Y-122360213D01*
X138649753Y-122343213D01*
X138623193Y-122323515D01*
X138598692Y-122301308D01*
X138576485Y-122276807D01*
X138556787Y-122250247D01*
X138539787Y-122221884D01*
X138525649Y-122191991D01*
X138514509Y-122160857D01*
X138506475Y-122128781D01*
X138501623Y-122096071D01*
X138500000Y-122063044D01*
X138500000Y-120936956D01*
X138501623Y-120903929D01*
X138506475Y-120871219D01*
X138514509Y-120839143D01*
X138525649Y-120808009D01*
X138539787Y-120778116D01*
X138556787Y-120749753D01*
X138576485Y-120723193D01*
X138598692Y-120698692D01*
X138623193Y-120676485D01*
X138649753Y-120656787D01*
X138678116Y-120639787D01*
X138708009Y-120625649D01*
X138739143Y-120614509D01*
X138771219Y-120606475D01*
X138803929Y-120601623D01*
X138836956Y-120600000D01*
X139713044Y-120600000D01*
X139746071Y-120601623D01*
X139746071Y-120601623D01*
G37*
D11*
X139275000Y-121500000D03*
D12*
X150327862Y-155515305D03*
D13*
X152867862Y-155515305D03*
X155407862Y-155515305D03*
X157947862Y-155515305D03*
X160487862Y-155515305D03*
X163027862Y-155515305D03*
D12*
X127750000Y-126250000D03*
D13*
X127750000Y-123710000D03*
X127750000Y-121170000D03*
X127750000Y-118630000D03*
X127750000Y-116090000D03*
D12*
X128250000Y-155500000D03*
D13*
X130790000Y-155500000D03*
X133330000Y-155500000D03*
X135870000Y-155500000D03*
X138410000Y-155500000D03*
X140950000Y-155500000D03*
D12*
X175250000Y-137500000D03*
D13*
X175250000Y-134960000D03*
X175250000Y-132420000D03*
X175250000Y-129880000D03*
X175250000Y-127340000D03*
X175250000Y-124800000D03*
X175250000Y-154689415D03*
X175250000Y-152149415D03*
X175250000Y-149609415D03*
X175250000Y-147069415D03*
X175250000Y-144529415D03*
D12*
X175250000Y-141989415D03*
X130500000Y-148750000D03*
D13*
X127960000Y-148750000D03*
X130500000Y-146210000D03*
X127960000Y-146210000D03*
X130500000Y-143670000D03*
X127960000Y-143670000D03*
X130500000Y-141130000D03*
X127960000Y-141130000D03*
X130500000Y-138590000D03*
X127960000Y-138590000D03*
X130500000Y-136050000D03*
X127960000Y-136050000D03*
D14*
X148250000Y-119250000D03*
D15*
X155870000Y-137030000D03*
X148250000Y-121790000D03*
X155870000Y-134490000D03*
X148250000Y-124330000D03*
X155870000Y-131950000D03*
X148250000Y-126870000D03*
X155870000Y-129410000D03*
X148250000Y-129410000D03*
X155870000Y-126870000D03*
X148250000Y-131950000D03*
X155870000Y-124330000D03*
X148250000Y-134490000D03*
X155870000Y-121790000D03*
X148250000Y-137030000D03*
X155870000Y-119250000D03*
D16*
X141836336Y-124164029D03*
D17*
X134216336Y-131784029D03*
X139296336Y-124164029D03*
X136756336Y-131784029D03*
X136756336Y-124164029D03*
X139296336Y-131784029D03*
X134216336Y-124164029D03*
X141836336Y-131784029D03*
D18*
X175550000Y-121900000D03*
X175550000Y-115100000D03*
M02*
