%TF.GenerationSoftware,KiCad,Pcbnew,5.0.0+dfsg1-2*%
%TF.CreationDate,2019-12-09T14:25:11+01:00*%
%TF.ProjectId,pmod2,706D6F64322E6B696361645F70636200,rev?*%
%TF.SameCoordinates,Original*%
%TF.FileFunction,Legend,Bot*%
%TF.FilePolarity,Positive*%
%FSLAX46Y46*%
G04 Gerber Fmt 4.6, Leading zero omitted, Abs format (unit mm)*
G04 Created by KiCad (PCBNEW 5.0.0+dfsg1-2) date Mon Dec  9 14:25:11 2019*
%MOMM*%
%LPD*%
G01*
G04 APERTURE LIST*
%ADD10C,0.120000*%
%ADD11C,0.150000*%
G04 APERTURE END LIST*
D10*
X137988748Y-122210000D02*
X138511252Y-122210000D01*
X137988748Y-120790000D02*
X138511252Y-120790000D01*
D11*
X139142857Y-120107142D02*
X139190476Y-120154761D01*
X139333333Y-120202380D01*
X139428571Y-120202380D01*
X139571428Y-120154761D01*
X139666666Y-120059523D01*
X139714285Y-119964285D01*
X139761904Y-119773809D01*
X139761904Y-119630952D01*
X139714285Y-119440476D01*
X139666666Y-119345238D01*
X139571428Y-119250000D01*
X139428571Y-119202380D01*
X139333333Y-119202380D01*
X139190476Y-119250000D01*
X139142857Y-119297619D01*
X138190476Y-120202380D02*
X138761904Y-120202380D01*
X138476190Y-120202380D02*
X138476190Y-119202380D01*
X138571428Y-119345238D01*
X138666666Y-119440476D01*
X138761904Y-119488095D01*
X137857142Y-119202380D02*
X137238095Y-119202380D01*
X137571428Y-119583333D01*
X137428571Y-119583333D01*
X137333333Y-119630952D01*
X137285714Y-119678571D01*
X137238095Y-119773809D01*
X137238095Y-120011904D01*
X137285714Y-120107142D01*
X137333333Y-120154761D01*
X137428571Y-120202380D01*
X137714285Y-120202380D01*
X137809523Y-120154761D01*
X137857142Y-120107142D01*
M02*
