%TF.GenerationSoftware,KiCad,Pcbnew,5.0.0+dfsg1-2*%
%TF.CreationDate,2019-12-09T14:25:11+01:00*%
%TF.ProjectId,pmod2,706D6F64322E6B696361645F70636200,rev?*%
%TF.SameCoordinates,Original*%
%TF.FileFunction,Soldermask,Top*%
%TF.FilePolarity,Negative*%
%FSLAX46Y46*%
G04 Gerber Fmt 4.6, Leading zero omitted, Abs format (unit mm)*
G04 Created by KiCad (PCBNEW 5.0.0+dfsg1-2) date Mon Dec  9 14:25:11 2019*
%MOMM*%
%LPD*%
G01*
G04 APERTURE LIST*
%ADD10R,1.000000X1.950000*%
%ADD11C,0.100000*%
%ADD12C,1.550000*%
%ADD13R,1.950000X1.000000*%
%ADD14R,2.100000X2.100000*%
%ADD15O,2.100000X2.100000*%
%ADD16R,1.050000X1.620000*%
%ADD17R,1.460000X0.800000*%
%ADD18R,1.460000X1.050000*%
%ADD19C,1.825000*%
%ADD20R,2.800000X2.000000*%
%ADD21O,2.800000X2.000000*%
%ADD22R,2.000000X2.800000*%
%ADD23O,2.000000X2.800000*%
%ADD24R,1.900000X2.400000*%
%ADD25R,2.050000X0.800000*%
%ADD26O,2.000000X1.300000*%
%ADD27R,2.900000X2.300000*%
G04 APERTURE END LIST*
D10*
X143845000Y-146300000D03*
X145115000Y-146300000D03*
X146385000Y-146300000D03*
X147655000Y-146300000D03*
X147655000Y-151700000D03*
X146385000Y-151700000D03*
X145115000Y-151700000D03*
X143845000Y-151700000D03*
D11*
G36*
X132096071Y-130451623D02*
X132128781Y-130456475D01*
X132160857Y-130464509D01*
X132191991Y-130475649D01*
X132221884Y-130489787D01*
X132250247Y-130506787D01*
X132276807Y-130526485D01*
X132301308Y-130548692D01*
X132323515Y-130573193D01*
X132343213Y-130599753D01*
X132360213Y-130628116D01*
X132374351Y-130658009D01*
X132385491Y-130689143D01*
X132393525Y-130721219D01*
X132398377Y-130753929D01*
X132400000Y-130786956D01*
X132400000Y-131663044D01*
X132398377Y-131696071D01*
X132393525Y-131728781D01*
X132385491Y-131760857D01*
X132374351Y-131791991D01*
X132360213Y-131821884D01*
X132343213Y-131850247D01*
X132323515Y-131876807D01*
X132301308Y-131901308D01*
X132276807Y-131923515D01*
X132250247Y-131943213D01*
X132221884Y-131960213D01*
X132191991Y-131974351D01*
X132160857Y-131985491D01*
X132128781Y-131993525D01*
X132096071Y-131998377D01*
X132063044Y-132000000D01*
X130936956Y-132000000D01*
X130903929Y-131998377D01*
X130871219Y-131993525D01*
X130839143Y-131985491D01*
X130808009Y-131974351D01*
X130778116Y-131960213D01*
X130749753Y-131943213D01*
X130723193Y-131923515D01*
X130698692Y-131901308D01*
X130676485Y-131876807D01*
X130656787Y-131850247D01*
X130639787Y-131821884D01*
X130625649Y-131791991D01*
X130614509Y-131760857D01*
X130606475Y-131728781D01*
X130601623Y-131696071D01*
X130600000Y-131663044D01*
X130600000Y-130786956D01*
X130601623Y-130753929D01*
X130606475Y-130721219D01*
X130614509Y-130689143D01*
X130625649Y-130658009D01*
X130639787Y-130628116D01*
X130656787Y-130599753D01*
X130676485Y-130573193D01*
X130698692Y-130548692D01*
X130723193Y-130526485D01*
X130749753Y-130506787D01*
X130778116Y-130489787D01*
X130808009Y-130475649D01*
X130839143Y-130464509D01*
X130871219Y-130456475D01*
X130903929Y-130451623D01*
X130936956Y-130450000D01*
X132063044Y-130450000D01*
X132096071Y-130451623D01*
X132096071Y-130451623D01*
G37*
D12*
X131500000Y-131225000D03*
D11*
G36*
X132096071Y-132501623D02*
X132128781Y-132506475D01*
X132160857Y-132514509D01*
X132191991Y-132525649D01*
X132221884Y-132539787D01*
X132250247Y-132556787D01*
X132276807Y-132576485D01*
X132301308Y-132598692D01*
X132323515Y-132623193D01*
X132343213Y-132649753D01*
X132360213Y-132678116D01*
X132374351Y-132708009D01*
X132385491Y-132739143D01*
X132393525Y-132771219D01*
X132398377Y-132803929D01*
X132400000Y-132836956D01*
X132400000Y-133713044D01*
X132398377Y-133746071D01*
X132393525Y-133778781D01*
X132385491Y-133810857D01*
X132374351Y-133841991D01*
X132360213Y-133871884D01*
X132343213Y-133900247D01*
X132323515Y-133926807D01*
X132301308Y-133951308D01*
X132276807Y-133973515D01*
X132250247Y-133993213D01*
X132221884Y-134010213D01*
X132191991Y-134024351D01*
X132160857Y-134035491D01*
X132128781Y-134043525D01*
X132096071Y-134048377D01*
X132063044Y-134050000D01*
X130936956Y-134050000D01*
X130903929Y-134048377D01*
X130871219Y-134043525D01*
X130839143Y-134035491D01*
X130808009Y-134024351D01*
X130778116Y-134010213D01*
X130749753Y-133993213D01*
X130723193Y-133973515D01*
X130698692Y-133951308D01*
X130676485Y-133926807D01*
X130656787Y-133900247D01*
X130639787Y-133871884D01*
X130625649Y-133841991D01*
X130614509Y-133810857D01*
X130606475Y-133778781D01*
X130601623Y-133746071D01*
X130600000Y-133713044D01*
X130600000Y-132836956D01*
X130601623Y-132803929D01*
X130606475Y-132771219D01*
X130614509Y-132739143D01*
X130625649Y-132708009D01*
X130639787Y-132678116D01*
X130656787Y-132649753D01*
X130676485Y-132623193D01*
X130698692Y-132598692D01*
X130723193Y-132576485D01*
X130749753Y-132556787D01*
X130778116Y-132539787D01*
X130808009Y-132525649D01*
X130839143Y-132514509D01*
X130871219Y-132506475D01*
X130903929Y-132501623D01*
X130936956Y-132500000D01*
X132063044Y-132500000D01*
X132096071Y-132501623D01*
X132096071Y-132501623D01*
G37*
D12*
X131500000Y-133275000D03*
D11*
G36*
X145346071Y-130201623D02*
X145378781Y-130206475D01*
X145410857Y-130214509D01*
X145441991Y-130225649D01*
X145471884Y-130239787D01*
X145500247Y-130256787D01*
X145526807Y-130276485D01*
X145551308Y-130298692D01*
X145573515Y-130323193D01*
X145593213Y-130349753D01*
X145610213Y-130378116D01*
X145624351Y-130408009D01*
X145635491Y-130439143D01*
X145643525Y-130471219D01*
X145648377Y-130503929D01*
X145650000Y-130536956D01*
X145650000Y-131413044D01*
X145648377Y-131446071D01*
X145643525Y-131478781D01*
X145635491Y-131510857D01*
X145624351Y-131541991D01*
X145610213Y-131571884D01*
X145593213Y-131600247D01*
X145573515Y-131626807D01*
X145551308Y-131651308D01*
X145526807Y-131673515D01*
X145500247Y-131693213D01*
X145471884Y-131710213D01*
X145441991Y-131724351D01*
X145410857Y-131735491D01*
X145378781Y-131743525D01*
X145346071Y-131748377D01*
X145313044Y-131750000D01*
X144186956Y-131750000D01*
X144153929Y-131748377D01*
X144121219Y-131743525D01*
X144089143Y-131735491D01*
X144058009Y-131724351D01*
X144028116Y-131710213D01*
X143999753Y-131693213D01*
X143973193Y-131673515D01*
X143948692Y-131651308D01*
X143926485Y-131626807D01*
X143906787Y-131600247D01*
X143889787Y-131571884D01*
X143875649Y-131541991D01*
X143864509Y-131510857D01*
X143856475Y-131478781D01*
X143851623Y-131446071D01*
X143850000Y-131413044D01*
X143850000Y-130536956D01*
X143851623Y-130503929D01*
X143856475Y-130471219D01*
X143864509Y-130439143D01*
X143875649Y-130408009D01*
X143889787Y-130378116D01*
X143906787Y-130349753D01*
X143926485Y-130323193D01*
X143948692Y-130298692D01*
X143973193Y-130276485D01*
X143999753Y-130256787D01*
X144028116Y-130239787D01*
X144058009Y-130225649D01*
X144089143Y-130214509D01*
X144121219Y-130206475D01*
X144153929Y-130201623D01*
X144186956Y-130200000D01*
X145313044Y-130200000D01*
X145346071Y-130201623D01*
X145346071Y-130201623D01*
G37*
D12*
X144750000Y-130975000D03*
D11*
G36*
X145346071Y-132251623D02*
X145378781Y-132256475D01*
X145410857Y-132264509D01*
X145441991Y-132275649D01*
X145471884Y-132289787D01*
X145500247Y-132306787D01*
X145526807Y-132326485D01*
X145551308Y-132348692D01*
X145573515Y-132373193D01*
X145593213Y-132399753D01*
X145610213Y-132428116D01*
X145624351Y-132458009D01*
X145635491Y-132489143D01*
X145643525Y-132521219D01*
X145648377Y-132553929D01*
X145650000Y-132586956D01*
X145650000Y-133463044D01*
X145648377Y-133496071D01*
X145643525Y-133528781D01*
X145635491Y-133560857D01*
X145624351Y-133591991D01*
X145610213Y-133621884D01*
X145593213Y-133650247D01*
X145573515Y-133676807D01*
X145551308Y-133701308D01*
X145526807Y-133723515D01*
X145500247Y-133743213D01*
X145471884Y-133760213D01*
X145441991Y-133774351D01*
X145410857Y-133785491D01*
X145378781Y-133793525D01*
X145346071Y-133798377D01*
X145313044Y-133800000D01*
X144186956Y-133800000D01*
X144153929Y-133798377D01*
X144121219Y-133793525D01*
X144089143Y-133785491D01*
X144058009Y-133774351D01*
X144028116Y-133760213D01*
X143999753Y-133743213D01*
X143973193Y-133723515D01*
X143948692Y-133701308D01*
X143926485Y-133676807D01*
X143906787Y-133650247D01*
X143889787Y-133621884D01*
X143875649Y-133591991D01*
X143864509Y-133560857D01*
X143856475Y-133528781D01*
X143851623Y-133496071D01*
X143850000Y-133463044D01*
X143850000Y-132586956D01*
X143851623Y-132553929D01*
X143856475Y-132521219D01*
X143864509Y-132489143D01*
X143875649Y-132458009D01*
X143889787Y-132428116D01*
X143906787Y-132399753D01*
X143926485Y-132373193D01*
X143948692Y-132348692D01*
X143973193Y-132326485D01*
X143999753Y-132306787D01*
X144028116Y-132289787D01*
X144058009Y-132275649D01*
X144089143Y-132264509D01*
X144121219Y-132256475D01*
X144153929Y-132251623D01*
X144186956Y-132250000D01*
X145313044Y-132250000D01*
X145346071Y-132251623D01*
X145346071Y-132251623D01*
G37*
D12*
X144750000Y-133025000D03*
D11*
G36*
X145346071Y-126201623D02*
X145378781Y-126206475D01*
X145410857Y-126214509D01*
X145441991Y-126225649D01*
X145471884Y-126239787D01*
X145500247Y-126256787D01*
X145526807Y-126276485D01*
X145551308Y-126298692D01*
X145573515Y-126323193D01*
X145593213Y-126349753D01*
X145610213Y-126378116D01*
X145624351Y-126408009D01*
X145635491Y-126439143D01*
X145643525Y-126471219D01*
X145648377Y-126503929D01*
X145650000Y-126536956D01*
X145650000Y-127413044D01*
X145648377Y-127446071D01*
X145643525Y-127478781D01*
X145635491Y-127510857D01*
X145624351Y-127541991D01*
X145610213Y-127571884D01*
X145593213Y-127600247D01*
X145573515Y-127626807D01*
X145551308Y-127651308D01*
X145526807Y-127673515D01*
X145500247Y-127693213D01*
X145471884Y-127710213D01*
X145441991Y-127724351D01*
X145410857Y-127735491D01*
X145378781Y-127743525D01*
X145346071Y-127748377D01*
X145313044Y-127750000D01*
X144186956Y-127750000D01*
X144153929Y-127748377D01*
X144121219Y-127743525D01*
X144089143Y-127735491D01*
X144058009Y-127724351D01*
X144028116Y-127710213D01*
X143999753Y-127693213D01*
X143973193Y-127673515D01*
X143948692Y-127651308D01*
X143926485Y-127626807D01*
X143906787Y-127600247D01*
X143889787Y-127571884D01*
X143875649Y-127541991D01*
X143864509Y-127510857D01*
X143856475Y-127478781D01*
X143851623Y-127446071D01*
X143850000Y-127413044D01*
X143850000Y-126536956D01*
X143851623Y-126503929D01*
X143856475Y-126471219D01*
X143864509Y-126439143D01*
X143875649Y-126408009D01*
X143889787Y-126378116D01*
X143906787Y-126349753D01*
X143926485Y-126323193D01*
X143948692Y-126298692D01*
X143973193Y-126276485D01*
X143999753Y-126256787D01*
X144028116Y-126239787D01*
X144058009Y-126225649D01*
X144089143Y-126214509D01*
X144121219Y-126206475D01*
X144153929Y-126201623D01*
X144186956Y-126200000D01*
X145313044Y-126200000D01*
X145346071Y-126201623D01*
X145346071Y-126201623D01*
G37*
D12*
X144750000Y-126975000D03*
D11*
G36*
X145346071Y-128251623D02*
X145378781Y-128256475D01*
X145410857Y-128264509D01*
X145441991Y-128275649D01*
X145471884Y-128289787D01*
X145500247Y-128306787D01*
X145526807Y-128326485D01*
X145551308Y-128348692D01*
X145573515Y-128373193D01*
X145593213Y-128399753D01*
X145610213Y-128428116D01*
X145624351Y-128458009D01*
X145635491Y-128489143D01*
X145643525Y-128521219D01*
X145648377Y-128553929D01*
X145650000Y-128586956D01*
X145650000Y-129463044D01*
X145648377Y-129496071D01*
X145643525Y-129528781D01*
X145635491Y-129560857D01*
X145624351Y-129591991D01*
X145610213Y-129621884D01*
X145593213Y-129650247D01*
X145573515Y-129676807D01*
X145551308Y-129701308D01*
X145526807Y-129723515D01*
X145500247Y-129743213D01*
X145471884Y-129760213D01*
X145441991Y-129774351D01*
X145410857Y-129785491D01*
X145378781Y-129793525D01*
X145346071Y-129798377D01*
X145313044Y-129800000D01*
X144186956Y-129800000D01*
X144153929Y-129798377D01*
X144121219Y-129793525D01*
X144089143Y-129785491D01*
X144058009Y-129774351D01*
X144028116Y-129760213D01*
X143999753Y-129743213D01*
X143973193Y-129723515D01*
X143948692Y-129701308D01*
X143926485Y-129676807D01*
X143906787Y-129650247D01*
X143889787Y-129621884D01*
X143875649Y-129591991D01*
X143864509Y-129560857D01*
X143856475Y-129528781D01*
X143851623Y-129496071D01*
X143850000Y-129463044D01*
X143850000Y-128586956D01*
X143851623Y-128553929D01*
X143856475Y-128521219D01*
X143864509Y-128489143D01*
X143875649Y-128458009D01*
X143889787Y-128428116D01*
X143906787Y-128399753D01*
X143926485Y-128373193D01*
X143948692Y-128348692D01*
X143973193Y-128326485D01*
X143999753Y-128306787D01*
X144028116Y-128289787D01*
X144058009Y-128275649D01*
X144089143Y-128264509D01*
X144121219Y-128256475D01*
X144153929Y-128251623D01*
X144186956Y-128250000D01*
X145313044Y-128250000D01*
X145346071Y-128251623D01*
X145346071Y-128251623D01*
G37*
D12*
X144750000Y-129025000D03*
D11*
G36*
X145246071Y-120351623D02*
X145278781Y-120356475D01*
X145310857Y-120364509D01*
X145341991Y-120375649D01*
X145371884Y-120389787D01*
X145400247Y-120406787D01*
X145426807Y-120426485D01*
X145451308Y-120448692D01*
X145473515Y-120473193D01*
X145493213Y-120499753D01*
X145510213Y-120528116D01*
X145524351Y-120558009D01*
X145535491Y-120589143D01*
X145543525Y-120621219D01*
X145548377Y-120653929D01*
X145550000Y-120686956D01*
X145550000Y-121813044D01*
X145548377Y-121846071D01*
X145543525Y-121878781D01*
X145535491Y-121910857D01*
X145524351Y-121941991D01*
X145510213Y-121971884D01*
X145493213Y-122000247D01*
X145473515Y-122026807D01*
X145451308Y-122051308D01*
X145426807Y-122073515D01*
X145400247Y-122093213D01*
X145371884Y-122110213D01*
X145341991Y-122124351D01*
X145310857Y-122135491D01*
X145278781Y-122143525D01*
X145246071Y-122148377D01*
X145213044Y-122150000D01*
X144336956Y-122150000D01*
X144303929Y-122148377D01*
X144271219Y-122143525D01*
X144239143Y-122135491D01*
X144208009Y-122124351D01*
X144178116Y-122110213D01*
X144149753Y-122093213D01*
X144123193Y-122073515D01*
X144098692Y-122051308D01*
X144076485Y-122026807D01*
X144056787Y-122000247D01*
X144039787Y-121971884D01*
X144025649Y-121941991D01*
X144014509Y-121910857D01*
X144006475Y-121878781D01*
X144001623Y-121846071D01*
X144000000Y-121813044D01*
X144000000Y-120686956D01*
X144001623Y-120653929D01*
X144006475Y-120621219D01*
X144014509Y-120589143D01*
X144025649Y-120558009D01*
X144039787Y-120528116D01*
X144056787Y-120499753D01*
X144076485Y-120473193D01*
X144098692Y-120448692D01*
X144123193Y-120426485D01*
X144149753Y-120406787D01*
X144178116Y-120389787D01*
X144208009Y-120375649D01*
X144239143Y-120364509D01*
X144271219Y-120356475D01*
X144303929Y-120351623D01*
X144336956Y-120350000D01*
X145213044Y-120350000D01*
X145246071Y-120351623D01*
X145246071Y-120351623D01*
G37*
D12*
X144775000Y-121250000D03*
D11*
G36*
X143196071Y-120351623D02*
X143228781Y-120356475D01*
X143260857Y-120364509D01*
X143291991Y-120375649D01*
X143321884Y-120389787D01*
X143350247Y-120406787D01*
X143376807Y-120426485D01*
X143401308Y-120448692D01*
X143423515Y-120473193D01*
X143443213Y-120499753D01*
X143460213Y-120528116D01*
X143474351Y-120558009D01*
X143485491Y-120589143D01*
X143493525Y-120621219D01*
X143498377Y-120653929D01*
X143500000Y-120686956D01*
X143500000Y-121813044D01*
X143498377Y-121846071D01*
X143493525Y-121878781D01*
X143485491Y-121910857D01*
X143474351Y-121941991D01*
X143460213Y-121971884D01*
X143443213Y-122000247D01*
X143423515Y-122026807D01*
X143401308Y-122051308D01*
X143376807Y-122073515D01*
X143350247Y-122093213D01*
X143321884Y-122110213D01*
X143291991Y-122124351D01*
X143260857Y-122135491D01*
X143228781Y-122143525D01*
X143196071Y-122148377D01*
X143163044Y-122150000D01*
X142286956Y-122150000D01*
X142253929Y-122148377D01*
X142221219Y-122143525D01*
X142189143Y-122135491D01*
X142158009Y-122124351D01*
X142128116Y-122110213D01*
X142099753Y-122093213D01*
X142073193Y-122073515D01*
X142048692Y-122051308D01*
X142026485Y-122026807D01*
X142006787Y-122000247D01*
X141989787Y-121971884D01*
X141975649Y-121941991D01*
X141964509Y-121910857D01*
X141956475Y-121878781D01*
X141951623Y-121846071D01*
X141950000Y-121813044D01*
X141950000Y-120686956D01*
X141951623Y-120653929D01*
X141956475Y-120621219D01*
X141964509Y-120589143D01*
X141975649Y-120558009D01*
X141989787Y-120528116D01*
X142006787Y-120499753D01*
X142026485Y-120473193D01*
X142048692Y-120448692D01*
X142073193Y-120426485D01*
X142099753Y-120406787D01*
X142128116Y-120389787D01*
X142158009Y-120375649D01*
X142189143Y-120364509D01*
X142221219Y-120356475D01*
X142253929Y-120351623D01*
X142286956Y-120350000D01*
X143163044Y-120350000D01*
X143196071Y-120351623D01*
X143196071Y-120351623D01*
G37*
D12*
X142725000Y-121250000D03*
D11*
G36*
X137346071Y-118501623D02*
X137378781Y-118506475D01*
X137410857Y-118514509D01*
X137441991Y-118525649D01*
X137471884Y-118539787D01*
X137500247Y-118556787D01*
X137526807Y-118576485D01*
X137551308Y-118598692D01*
X137573515Y-118623193D01*
X137593213Y-118649753D01*
X137610213Y-118678116D01*
X137624351Y-118708009D01*
X137635491Y-118739143D01*
X137643525Y-118771219D01*
X137648377Y-118803929D01*
X137650000Y-118836956D01*
X137650000Y-119713044D01*
X137648377Y-119746071D01*
X137643525Y-119778781D01*
X137635491Y-119810857D01*
X137624351Y-119841991D01*
X137610213Y-119871884D01*
X137593213Y-119900247D01*
X137573515Y-119926807D01*
X137551308Y-119951308D01*
X137526807Y-119973515D01*
X137500247Y-119993213D01*
X137471884Y-120010213D01*
X137441991Y-120024351D01*
X137410857Y-120035491D01*
X137378781Y-120043525D01*
X137346071Y-120048377D01*
X137313044Y-120050000D01*
X136186956Y-120050000D01*
X136153929Y-120048377D01*
X136121219Y-120043525D01*
X136089143Y-120035491D01*
X136058009Y-120024351D01*
X136028116Y-120010213D01*
X135999753Y-119993213D01*
X135973193Y-119973515D01*
X135948692Y-119951308D01*
X135926485Y-119926807D01*
X135906787Y-119900247D01*
X135889787Y-119871884D01*
X135875649Y-119841991D01*
X135864509Y-119810857D01*
X135856475Y-119778781D01*
X135851623Y-119746071D01*
X135850000Y-119713044D01*
X135850000Y-118836956D01*
X135851623Y-118803929D01*
X135856475Y-118771219D01*
X135864509Y-118739143D01*
X135875649Y-118708009D01*
X135889787Y-118678116D01*
X135906787Y-118649753D01*
X135926485Y-118623193D01*
X135948692Y-118598692D01*
X135973193Y-118576485D01*
X135999753Y-118556787D01*
X136028116Y-118539787D01*
X136058009Y-118525649D01*
X136089143Y-118514509D01*
X136121219Y-118506475D01*
X136153929Y-118501623D01*
X136186956Y-118500000D01*
X137313044Y-118500000D01*
X137346071Y-118501623D01*
X137346071Y-118501623D01*
G37*
D12*
X136750000Y-119275000D03*
D11*
G36*
X137346071Y-116451623D02*
X137378781Y-116456475D01*
X137410857Y-116464509D01*
X137441991Y-116475649D01*
X137471884Y-116489787D01*
X137500247Y-116506787D01*
X137526807Y-116526485D01*
X137551308Y-116548692D01*
X137573515Y-116573193D01*
X137593213Y-116599753D01*
X137610213Y-116628116D01*
X137624351Y-116658009D01*
X137635491Y-116689143D01*
X137643525Y-116721219D01*
X137648377Y-116753929D01*
X137650000Y-116786956D01*
X137650000Y-117663044D01*
X137648377Y-117696071D01*
X137643525Y-117728781D01*
X137635491Y-117760857D01*
X137624351Y-117791991D01*
X137610213Y-117821884D01*
X137593213Y-117850247D01*
X137573515Y-117876807D01*
X137551308Y-117901308D01*
X137526807Y-117923515D01*
X137500247Y-117943213D01*
X137471884Y-117960213D01*
X137441991Y-117974351D01*
X137410857Y-117985491D01*
X137378781Y-117993525D01*
X137346071Y-117998377D01*
X137313044Y-118000000D01*
X136186956Y-118000000D01*
X136153929Y-117998377D01*
X136121219Y-117993525D01*
X136089143Y-117985491D01*
X136058009Y-117974351D01*
X136028116Y-117960213D01*
X135999753Y-117943213D01*
X135973193Y-117923515D01*
X135948692Y-117901308D01*
X135926485Y-117876807D01*
X135906787Y-117850247D01*
X135889787Y-117821884D01*
X135875649Y-117791991D01*
X135864509Y-117760857D01*
X135856475Y-117728781D01*
X135851623Y-117696071D01*
X135850000Y-117663044D01*
X135850000Y-116786956D01*
X135851623Y-116753929D01*
X135856475Y-116721219D01*
X135864509Y-116689143D01*
X135875649Y-116658009D01*
X135889787Y-116628116D01*
X135906787Y-116599753D01*
X135926485Y-116573193D01*
X135948692Y-116548692D01*
X135973193Y-116526485D01*
X135999753Y-116506787D01*
X136028116Y-116489787D01*
X136058009Y-116475649D01*
X136089143Y-116464509D01*
X136121219Y-116456475D01*
X136153929Y-116451623D01*
X136186956Y-116450000D01*
X137313044Y-116450000D01*
X137346071Y-116451623D01*
X137346071Y-116451623D01*
G37*
D12*
X136750000Y-117225000D03*
D11*
G36*
X131846071Y-128501623D02*
X131878781Y-128506475D01*
X131910857Y-128514509D01*
X131941991Y-128525649D01*
X131971884Y-128539787D01*
X132000247Y-128556787D01*
X132026807Y-128576485D01*
X132051308Y-128598692D01*
X132073515Y-128623193D01*
X132093213Y-128649753D01*
X132110213Y-128678116D01*
X132124351Y-128708009D01*
X132135491Y-128739143D01*
X132143525Y-128771219D01*
X132148377Y-128803929D01*
X132150000Y-128836956D01*
X132150000Y-129713044D01*
X132148377Y-129746071D01*
X132143525Y-129778781D01*
X132135491Y-129810857D01*
X132124351Y-129841991D01*
X132110213Y-129871884D01*
X132093213Y-129900247D01*
X132073515Y-129926807D01*
X132051308Y-129951308D01*
X132026807Y-129973515D01*
X132000247Y-129993213D01*
X131971884Y-130010213D01*
X131941991Y-130024351D01*
X131910857Y-130035491D01*
X131878781Y-130043525D01*
X131846071Y-130048377D01*
X131813044Y-130050000D01*
X130686956Y-130050000D01*
X130653929Y-130048377D01*
X130621219Y-130043525D01*
X130589143Y-130035491D01*
X130558009Y-130024351D01*
X130528116Y-130010213D01*
X130499753Y-129993213D01*
X130473193Y-129973515D01*
X130448692Y-129951308D01*
X130426485Y-129926807D01*
X130406787Y-129900247D01*
X130389787Y-129871884D01*
X130375649Y-129841991D01*
X130364509Y-129810857D01*
X130356475Y-129778781D01*
X130351623Y-129746071D01*
X130350000Y-129713044D01*
X130350000Y-128836956D01*
X130351623Y-128803929D01*
X130356475Y-128771219D01*
X130364509Y-128739143D01*
X130375649Y-128708009D01*
X130389787Y-128678116D01*
X130406787Y-128649753D01*
X130426485Y-128623193D01*
X130448692Y-128598692D01*
X130473193Y-128576485D01*
X130499753Y-128556787D01*
X130528116Y-128539787D01*
X130558009Y-128525649D01*
X130589143Y-128514509D01*
X130621219Y-128506475D01*
X130653929Y-128501623D01*
X130686956Y-128500000D01*
X131813044Y-128500000D01*
X131846071Y-128501623D01*
X131846071Y-128501623D01*
G37*
D12*
X131250000Y-129275000D03*
D11*
G36*
X131846071Y-126451623D02*
X131878781Y-126456475D01*
X131910857Y-126464509D01*
X131941991Y-126475649D01*
X131971884Y-126489787D01*
X132000247Y-126506787D01*
X132026807Y-126526485D01*
X132051308Y-126548692D01*
X132073515Y-126573193D01*
X132093213Y-126599753D01*
X132110213Y-126628116D01*
X132124351Y-126658009D01*
X132135491Y-126689143D01*
X132143525Y-126721219D01*
X132148377Y-126753929D01*
X132150000Y-126786956D01*
X132150000Y-127663044D01*
X132148377Y-127696071D01*
X132143525Y-127728781D01*
X132135491Y-127760857D01*
X132124351Y-127791991D01*
X132110213Y-127821884D01*
X132093213Y-127850247D01*
X132073515Y-127876807D01*
X132051308Y-127901308D01*
X132026807Y-127923515D01*
X132000247Y-127943213D01*
X131971884Y-127960213D01*
X131941991Y-127974351D01*
X131910857Y-127985491D01*
X131878781Y-127993525D01*
X131846071Y-127998377D01*
X131813044Y-128000000D01*
X130686956Y-128000000D01*
X130653929Y-127998377D01*
X130621219Y-127993525D01*
X130589143Y-127985491D01*
X130558009Y-127974351D01*
X130528116Y-127960213D01*
X130499753Y-127943213D01*
X130473193Y-127923515D01*
X130448692Y-127901308D01*
X130426485Y-127876807D01*
X130406787Y-127850247D01*
X130389787Y-127821884D01*
X130375649Y-127791991D01*
X130364509Y-127760857D01*
X130356475Y-127728781D01*
X130351623Y-127696071D01*
X130350000Y-127663044D01*
X130350000Y-126786956D01*
X130351623Y-126753929D01*
X130356475Y-126721219D01*
X130364509Y-126689143D01*
X130375649Y-126658009D01*
X130389787Y-126628116D01*
X130406787Y-126599753D01*
X130426485Y-126573193D01*
X130448692Y-126548692D01*
X130473193Y-126526485D01*
X130499753Y-126506787D01*
X130528116Y-126489787D01*
X130558009Y-126475649D01*
X130589143Y-126464509D01*
X130621219Y-126456475D01*
X130653929Y-126451623D01*
X130686956Y-126450000D01*
X131813044Y-126450000D01*
X131846071Y-126451623D01*
X131846071Y-126451623D01*
G37*
D12*
X131250000Y-127225000D03*
D13*
X162550000Y-131345000D03*
X162550000Y-132615000D03*
X162550000Y-133885000D03*
X162550000Y-135155000D03*
X167950000Y-135155000D03*
X167950000Y-133885000D03*
X167950000Y-132615000D03*
X167950000Y-131345000D03*
D11*
G36*
X159346071Y-117451623D02*
X159378781Y-117456475D01*
X159410857Y-117464509D01*
X159441991Y-117475649D01*
X159471884Y-117489787D01*
X159500247Y-117506787D01*
X159526807Y-117526485D01*
X159551308Y-117548692D01*
X159573515Y-117573193D01*
X159593213Y-117599753D01*
X159610213Y-117628116D01*
X159624351Y-117658009D01*
X159635491Y-117689143D01*
X159643525Y-117721219D01*
X159648377Y-117753929D01*
X159650000Y-117786956D01*
X159650000Y-118663044D01*
X159648377Y-118696071D01*
X159643525Y-118728781D01*
X159635491Y-118760857D01*
X159624351Y-118791991D01*
X159610213Y-118821884D01*
X159593213Y-118850247D01*
X159573515Y-118876807D01*
X159551308Y-118901308D01*
X159526807Y-118923515D01*
X159500247Y-118943213D01*
X159471884Y-118960213D01*
X159441991Y-118974351D01*
X159410857Y-118985491D01*
X159378781Y-118993525D01*
X159346071Y-118998377D01*
X159313044Y-119000000D01*
X158186956Y-119000000D01*
X158153929Y-118998377D01*
X158121219Y-118993525D01*
X158089143Y-118985491D01*
X158058009Y-118974351D01*
X158028116Y-118960213D01*
X157999753Y-118943213D01*
X157973193Y-118923515D01*
X157948692Y-118901308D01*
X157926485Y-118876807D01*
X157906787Y-118850247D01*
X157889787Y-118821884D01*
X157875649Y-118791991D01*
X157864509Y-118760857D01*
X157856475Y-118728781D01*
X157851623Y-118696071D01*
X157850000Y-118663044D01*
X157850000Y-117786956D01*
X157851623Y-117753929D01*
X157856475Y-117721219D01*
X157864509Y-117689143D01*
X157875649Y-117658009D01*
X157889787Y-117628116D01*
X157906787Y-117599753D01*
X157926485Y-117573193D01*
X157948692Y-117548692D01*
X157973193Y-117526485D01*
X157999753Y-117506787D01*
X158028116Y-117489787D01*
X158058009Y-117475649D01*
X158089143Y-117464509D01*
X158121219Y-117456475D01*
X158153929Y-117451623D01*
X158186956Y-117450000D01*
X159313044Y-117450000D01*
X159346071Y-117451623D01*
X159346071Y-117451623D01*
G37*
D12*
X158750000Y-118225000D03*
D11*
G36*
X159346071Y-119501623D02*
X159378781Y-119506475D01*
X159410857Y-119514509D01*
X159441991Y-119525649D01*
X159471884Y-119539787D01*
X159500247Y-119556787D01*
X159526807Y-119576485D01*
X159551308Y-119598692D01*
X159573515Y-119623193D01*
X159593213Y-119649753D01*
X159610213Y-119678116D01*
X159624351Y-119708009D01*
X159635491Y-119739143D01*
X159643525Y-119771219D01*
X159648377Y-119803929D01*
X159650000Y-119836956D01*
X159650000Y-120713044D01*
X159648377Y-120746071D01*
X159643525Y-120778781D01*
X159635491Y-120810857D01*
X159624351Y-120841991D01*
X159610213Y-120871884D01*
X159593213Y-120900247D01*
X159573515Y-120926807D01*
X159551308Y-120951308D01*
X159526807Y-120973515D01*
X159500247Y-120993213D01*
X159471884Y-121010213D01*
X159441991Y-121024351D01*
X159410857Y-121035491D01*
X159378781Y-121043525D01*
X159346071Y-121048377D01*
X159313044Y-121050000D01*
X158186956Y-121050000D01*
X158153929Y-121048377D01*
X158121219Y-121043525D01*
X158089143Y-121035491D01*
X158058009Y-121024351D01*
X158028116Y-121010213D01*
X157999753Y-120993213D01*
X157973193Y-120973515D01*
X157948692Y-120951308D01*
X157926485Y-120926807D01*
X157906787Y-120900247D01*
X157889787Y-120871884D01*
X157875649Y-120841991D01*
X157864509Y-120810857D01*
X157856475Y-120778781D01*
X157851623Y-120746071D01*
X157850000Y-120713044D01*
X157850000Y-119836956D01*
X157851623Y-119803929D01*
X157856475Y-119771219D01*
X157864509Y-119739143D01*
X157875649Y-119708009D01*
X157889787Y-119678116D01*
X157906787Y-119649753D01*
X157926485Y-119623193D01*
X157948692Y-119598692D01*
X157973193Y-119576485D01*
X157999753Y-119556787D01*
X158028116Y-119539787D01*
X158058009Y-119525649D01*
X158089143Y-119514509D01*
X158121219Y-119506475D01*
X158153929Y-119501623D01*
X158186956Y-119500000D01*
X159313044Y-119500000D01*
X159346071Y-119501623D01*
X159346071Y-119501623D01*
G37*
D12*
X158750000Y-120275000D03*
D11*
G36*
X147846071Y-155751623D02*
X147878781Y-155756475D01*
X147910857Y-155764509D01*
X147941991Y-155775649D01*
X147971884Y-155789787D01*
X148000247Y-155806787D01*
X148026807Y-155826485D01*
X148051308Y-155848692D01*
X148073515Y-155873193D01*
X148093213Y-155899753D01*
X148110213Y-155928116D01*
X148124351Y-155958009D01*
X148135491Y-155989143D01*
X148143525Y-156021219D01*
X148148377Y-156053929D01*
X148150000Y-156086956D01*
X148150000Y-156963044D01*
X148148377Y-156996071D01*
X148143525Y-157028781D01*
X148135491Y-157060857D01*
X148124351Y-157091991D01*
X148110213Y-157121884D01*
X148093213Y-157150247D01*
X148073515Y-157176807D01*
X148051308Y-157201308D01*
X148026807Y-157223515D01*
X148000247Y-157243213D01*
X147971884Y-157260213D01*
X147941991Y-157274351D01*
X147910857Y-157285491D01*
X147878781Y-157293525D01*
X147846071Y-157298377D01*
X147813044Y-157300000D01*
X146686956Y-157300000D01*
X146653929Y-157298377D01*
X146621219Y-157293525D01*
X146589143Y-157285491D01*
X146558009Y-157274351D01*
X146528116Y-157260213D01*
X146499753Y-157243213D01*
X146473193Y-157223515D01*
X146448692Y-157201308D01*
X146426485Y-157176807D01*
X146406787Y-157150247D01*
X146389787Y-157121884D01*
X146375649Y-157091991D01*
X146364509Y-157060857D01*
X146356475Y-157028781D01*
X146351623Y-156996071D01*
X146350000Y-156963044D01*
X146350000Y-156086956D01*
X146351623Y-156053929D01*
X146356475Y-156021219D01*
X146364509Y-155989143D01*
X146375649Y-155958009D01*
X146389787Y-155928116D01*
X146406787Y-155899753D01*
X146426485Y-155873193D01*
X146448692Y-155848692D01*
X146473193Y-155826485D01*
X146499753Y-155806787D01*
X146528116Y-155789787D01*
X146558009Y-155775649D01*
X146589143Y-155764509D01*
X146621219Y-155756475D01*
X146653929Y-155751623D01*
X146686956Y-155750000D01*
X147813044Y-155750000D01*
X147846071Y-155751623D01*
X147846071Y-155751623D01*
G37*
D12*
X147250000Y-156525000D03*
D11*
G36*
X147846071Y-153701623D02*
X147878781Y-153706475D01*
X147910857Y-153714509D01*
X147941991Y-153725649D01*
X147971884Y-153739787D01*
X148000247Y-153756787D01*
X148026807Y-153776485D01*
X148051308Y-153798692D01*
X148073515Y-153823193D01*
X148093213Y-153849753D01*
X148110213Y-153878116D01*
X148124351Y-153908009D01*
X148135491Y-153939143D01*
X148143525Y-153971219D01*
X148148377Y-154003929D01*
X148150000Y-154036956D01*
X148150000Y-154913044D01*
X148148377Y-154946071D01*
X148143525Y-154978781D01*
X148135491Y-155010857D01*
X148124351Y-155041991D01*
X148110213Y-155071884D01*
X148093213Y-155100247D01*
X148073515Y-155126807D01*
X148051308Y-155151308D01*
X148026807Y-155173515D01*
X148000247Y-155193213D01*
X147971884Y-155210213D01*
X147941991Y-155224351D01*
X147910857Y-155235491D01*
X147878781Y-155243525D01*
X147846071Y-155248377D01*
X147813044Y-155250000D01*
X146686956Y-155250000D01*
X146653929Y-155248377D01*
X146621219Y-155243525D01*
X146589143Y-155235491D01*
X146558009Y-155224351D01*
X146528116Y-155210213D01*
X146499753Y-155193213D01*
X146473193Y-155173515D01*
X146448692Y-155151308D01*
X146426485Y-155126807D01*
X146406787Y-155100247D01*
X146389787Y-155071884D01*
X146375649Y-155041991D01*
X146364509Y-155010857D01*
X146356475Y-154978781D01*
X146351623Y-154946071D01*
X146350000Y-154913044D01*
X146350000Y-154036956D01*
X146351623Y-154003929D01*
X146356475Y-153971219D01*
X146364509Y-153939143D01*
X146375649Y-153908009D01*
X146389787Y-153878116D01*
X146406787Y-153849753D01*
X146426485Y-153823193D01*
X146448692Y-153798692D01*
X146473193Y-153776485D01*
X146499753Y-153756787D01*
X146528116Y-153739787D01*
X146558009Y-153725649D01*
X146589143Y-153714509D01*
X146621219Y-153706475D01*
X146653929Y-153701623D01*
X146686956Y-153700000D01*
X147813044Y-153700000D01*
X147846071Y-153701623D01*
X147846071Y-153701623D01*
G37*
D12*
X147250000Y-154475000D03*
D11*
G36*
X144346071Y-114201623D02*
X144378781Y-114206475D01*
X144410857Y-114214509D01*
X144441991Y-114225649D01*
X144471884Y-114239787D01*
X144500247Y-114256787D01*
X144526807Y-114276485D01*
X144551308Y-114298692D01*
X144573515Y-114323193D01*
X144593213Y-114349753D01*
X144610213Y-114378116D01*
X144624351Y-114408009D01*
X144635491Y-114439143D01*
X144643525Y-114471219D01*
X144648377Y-114503929D01*
X144650000Y-114536956D01*
X144650000Y-115413044D01*
X144648377Y-115446071D01*
X144643525Y-115478781D01*
X144635491Y-115510857D01*
X144624351Y-115541991D01*
X144610213Y-115571884D01*
X144593213Y-115600247D01*
X144573515Y-115626807D01*
X144551308Y-115651308D01*
X144526807Y-115673515D01*
X144500247Y-115693213D01*
X144471884Y-115710213D01*
X144441991Y-115724351D01*
X144410857Y-115735491D01*
X144378781Y-115743525D01*
X144346071Y-115748377D01*
X144313044Y-115750000D01*
X143186956Y-115750000D01*
X143153929Y-115748377D01*
X143121219Y-115743525D01*
X143089143Y-115735491D01*
X143058009Y-115724351D01*
X143028116Y-115710213D01*
X142999753Y-115693213D01*
X142973193Y-115673515D01*
X142948692Y-115651308D01*
X142926485Y-115626807D01*
X142906787Y-115600247D01*
X142889787Y-115571884D01*
X142875649Y-115541991D01*
X142864509Y-115510857D01*
X142856475Y-115478781D01*
X142851623Y-115446071D01*
X142850000Y-115413044D01*
X142850000Y-114536956D01*
X142851623Y-114503929D01*
X142856475Y-114471219D01*
X142864509Y-114439143D01*
X142875649Y-114408009D01*
X142889787Y-114378116D01*
X142906787Y-114349753D01*
X142926485Y-114323193D01*
X142948692Y-114298692D01*
X142973193Y-114276485D01*
X142999753Y-114256787D01*
X143028116Y-114239787D01*
X143058009Y-114225649D01*
X143089143Y-114214509D01*
X143121219Y-114206475D01*
X143153929Y-114201623D01*
X143186956Y-114200000D01*
X144313044Y-114200000D01*
X144346071Y-114201623D01*
X144346071Y-114201623D01*
G37*
D12*
X143750000Y-114975000D03*
D11*
G36*
X144346071Y-116251623D02*
X144378781Y-116256475D01*
X144410857Y-116264509D01*
X144441991Y-116275649D01*
X144471884Y-116289787D01*
X144500247Y-116306787D01*
X144526807Y-116326485D01*
X144551308Y-116348692D01*
X144573515Y-116373193D01*
X144593213Y-116399753D01*
X144610213Y-116428116D01*
X144624351Y-116458009D01*
X144635491Y-116489143D01*
X144643525Y-116521219D01*
X144648377Y-116553929D01*
X144650000Y-116586956D01*
X144650000Y-117463044D01*
X144648377Y-117496071D01*
X144643525Y-117528781D01*
X144635491Y-117560857D01*
X144624351Y-117591991D01*
X144610213Y-117621884D01*
X144593213Y-117650247D01*
X144573515Y-117676807D01*
X144551308Y-117701308D01*
X144526807Y-117723515D01*
X144500247Y-117743213D01*
X144471884Y-117760213D01*
X144441991Y-117774351D01*
X144410857Y-117785491D01*
X144378781Y-117793525D01*
X144346071Y-117798377D01*
X144313044Y-117800000D01*
X143186956Y-117800000D01*
X143153929Y-117798377D01*
X143121219Y-117793525D01*
X143089143Y-117785491D01*
X143058009Y-117774351D01*
X143028116Y-117760213D01*
X142999753Y-117743213D01*
X142973193Y-117723515D01*
X142948692Y-117701308D01*
X142926485Y-117676807D01*
X142906787Y-117650247D01*
X142889787Y-117621884D01*
X142875649Y-117591991D01*
X142864509Y-117560857D01*
X142856475Y-117528781D01*
X142851623Y-117496071D01*
X142850000Y-117463044D01*
X142850000Y-116586956D01*
X142851623Y-116553929D01*
X142856475Y-116521219D01*
X142864509Y-116489143D01*
X142875649Y-116458009D01*
X142889787Y-116428116D01*
X142906787Y-116399753D01*
X142926485Y-116373193D01*
X142948692Y-116348692D01*
X142973193Y-116326485D01*
X142999753Y-116306787D01*
X143028116Y-116289787D01*
X143058009Y-116275649D01*
X143089143Y-116264509D01*
X143121219Y-116256475D01*
X143153929Y-116251623D01*
X143186956Y-116250000D01*
X144313044Y-116250000D01*
X144346071Y-116251623D01*
X144346071Y-116251623D01*
G37*
D12*
X143750000Y-117025000D03*
D11*
G36*
X170746071Y-138851623D02*
X170778781Y-138856475D01*
X170810857Y-138864509D01*
X170841991Y-138875649D01*
X170871884Y-138889787D01*
X170900247Y-138906787D01*
X170926807Y-138926485D01*
X170951308Y-138948692D01*
X170973515Y-138973193D01*
X170993213Y-138999753D01*
X171010213Y-139028116D01*
X171024351Y-139058009D01*
X171035491Y-139089143D01*
X171043525Y-139121219D01*
X171048377Y-139153929D01*
X171050000Y-139186956D01*
X171050000Y-140313044D01*
X171048377Y-140346071D01*
X171043525Y-140378781D01*
X171035491Y-140410857D01*
X171024351Y-140441991D01*
X171010213Y-140471884D01*
X170993213Y-140500247D01*
X170973515Y-140526807D01*
X170951308Y-140551308D01*
X170926807Y-140573515D01*
X170900247Y-140593213D01*
X170871884Y-140610213D01*
X170841991Y-140624351D01*
X170810857Y-140635491D01*
X170778781Y-140643525D01*
X170746071Y-140648377D01*
X170713044Y-140650000D01*
X169836956Y-140650000D01*
X169803929Y-140648377D01*
X169771219Y-140643525D01*
X169739143Y-140635491D01*
X169708009Y-140624351D01*
X169678116Y-140610213D01*
X169649753Y-140593213D01*
X169623193Y-140573515D01*
X169598692Y-140551308D01*
X169576485Y-140526807D01*
X169556787Y-140500247D01*
X169539787Y-140471884D01*
X169525649Y-140441991D01*
X169514509Y-140410857D01*
X169506475Y-140378781D01*
X169501623Y-140346071D01*
X169500000Y-140313044D01*
X169500000Y-139186956D01*
X169501623Y-139153929D01*
X169506475Y-139121219D01*
X169514509Y-139089143D01*
X169525649Y-139058009D01*
X169539787Y-139028116D01*
X169556787Y-138999753D01*
X169576485Y-138973193D01*
X169598692Y-138948692D01*
X169623193Y-138926485D01*
X169649753Y-138906787D01*
X169678116Y-138889787D01*
X169708009Y-138875649D01*
X169739143Y-138864509D01*
X169771219Y-138856475D01*
X169803929Y-138851623D01*
X169836956Y-138850000D01*
X170713044Y-138850000D01*
X170746071Y-138851623D01*
X170746071Y-138851623D01*
G37*
D12*
X170275000Y-139750000D03*
D11*
G36*
X168696071Y-138851623D02*
X168728781Y-138856475D01*
X168760857Y-138864509D01*
X168791991Y-138875649D01*
X168821884Y-138889787D01*
X168850247Y-138906787D01*
X168876807Y-138926485D01*
X168901308Y-138948692D01*
X168923515Y-138973193D01*
X168943213Y-138999753D01*
X168960213Y-139028116D01*
X168974351Y-139058009D01*
X168985491Y-139089143D01*
X168993525Y-139121219D01*
X168998377Y-139153929D01*
X169000000Y-139186956D01*
X169000000Y-140313044D01*
X168998377Y-140346071D01*
X168993525Y-140378781D01*
X168985491Y-140410857D01*
X168974351Y-140441991D01*
X168960213Y-140471884D01*
X168943213Y-140500247D01*
X168923515Y-140526807D01*
X168901308Y-140551308D01*
X168876807Y-140573515D01*
X168850247Y-140593213D01*
X168821884Y-140610213D01*
X168791991Y-140624351D01*
X168760857Y-140635491D01*
X168728781Y-140643525D01*
X168696071Y-140648377D01*
X168663044Y-140650000D01*
X167786956Y-140650000D01*
X167753929Y-140648377D01*
X167721219Y-140643525D01*
X167689143Y-140635491D01*
X167658009Y-140624351D01*
X167628116Y-140610213D01*
X167599753Y-140593213D01*
X167573193Y-140573515D01*
X167548692Y-140551308D01*
X167526485Y-140526807D01*
X167506787Y-140500247D01*
X167489787Y-140471884D01*
X167475649Y-140441991D01*
X167464509Y-140410857D01*
X167456475Y-140378781D01*
X167451623Y-140346071D01*
X167450000Y-140313044D01*
X167450000Y-139186956D01*
X167451623Y-139153929D01*
X167456475Y-139121219D01*
X167464509Y-139089143D01*
X167475649Y-139058009D01*
X167489787Y-139028116D01*
X167506787Y-138999753D01*
X167526485Y-138973193D01*
X167548692Y-138948692D01*
X167573193Y-138926485D01*
X167599753Y-138906787D01*
X167628116Y-138889787D01*
X167658009Y-138875649D01*
X167689143Y-138864509D01*
X167721219Y-138856475D01*
X167753929Y-138851623D01*
X167786956Y-138850000D01*
X168663044Y-138850000D01*
X168696071Y-138851623D01*
X168696071Y-138851623D01*
G37*
D12*
X168225000Y-139750000D03*
D14*
X150327862Y-155515305D03*
D15*
X152867862Y-155515305D03*
X155407862Y-155515305D03*
X157947862Y-155515305D03*
X160487862Y-155515305D03*
X163027862Y-155515305D03*
D14*
X127750000Y-126250000D03*
D15*
X127750000Y-123710000D03*
X127750000Y-121170000D03*
X127750000Y-118630000D03*
X127750000Y-116090000D03*
D11*
G36*
X167496071Y-128351623D02*
X167528781Y-128356475D01*
X167560857Y-128364509D01*
X167591991Y-128375649D01*
X167621884Y-128389787D01*
X167650247Y-128406787D01*
X167676807Y-128426485D01*
X167701308Y-128448692D01*
X167723515Y-128473193D01*
X167743213Y-128499753D01*
X167760213Y-128528116D01*
X167774351Y-128558009D01*
X167785491Y-128589143D01*
X167793525Y-128621219D01*
X167798377Y-128653929D01*
X167800000Y-128686956D01*
X167800000Y-129813044D01*
X167798377Y-129846071D01*
X167793525Y-129878781D01*
X167785491Y-129910857D01*
X167774351Y-129941991D01*
X167760213Y-129971884D01*
X167743213Y-130000247D01*
X167723515Y-130026807D01*
X167701308Y-130051308D01*
X167676807Y-130073515D01*
X167650247Y-130093213D01*
X167621884Y-130110213D01*
X167591991Y-130124351D01*
X167560857Y-130135491D01*
X167528781Y-130143525D01*
X167496071Y-130148377D01*
X167463044Y-130150000D01*
X166586956Y-130150000D01*
X166553929Y-130148377D01*
X166521219Y-130143525D01*
X166489143Y-130135491D01*
X166458009Y-130124351D01*
X166428116Y-130110213D01*
X166399753Y-130093213D01*
X166373193Y-130073515D01*
X166348692Y-130051308D01*
X166326485Y-130026807D01*
X166306787Y-130000247D01*
X166289787Y-129971884D01*
X166275649Y-129941991D01*
X166264509Y-129910857D01*
X166256475Y-129878781D01*
X166251623Y-129846071D01*
X166250000Y-129813044D01*
X166250000Y-128686956D01*
X166251623Y-128653929D01*
X166256475Y-128621219D01*
X166264509Y-128589143D01*
X166275649Y-128558009D01*
X166289787Y-128528116D01*
X166306787Y-128499753D01*
X166326485Y-128473193D01*
X166348692Y-128448692D01*
X166373193Y-128426485D01*
X166399753Y-128406787D01*
X166428116Y-128389787D01*
X166458009Y-128375649D01*
X166489143Y-128364509D01*
X166521219Y-128356475D01*
X166553929Y-128351623D01*
X166586956Y-128350000D01*
X167463044Y-128350000D01*
X167496071Y-128351623D01*
X167496071Y-128351623D01*
G37*
D12*
X167025000Y-129250000D03*
D11*
G36*
X165446071Y-128351623D02*
X165478781Y-128356475D01*
X165510857Y-128364509D01*
X165541991Y-128375649D01*
X165571884Y-128389787D01*
X165600247Y-128406787D01*
X165626807Y-128426485D01*
X165651308Y-128448692D01*
X165673515Y-128473193D01*
X165693213Y-128499753D01*
X165710213Y-128528116D01*
X165724351Y-128558009D01*
X165735491Y-128589143D01*
X165743525Y-128621219D01*
X165748377Y-128653929D01*
X165750000Y-128686956D01*
X165750000Y-129813044D01*
X165748377Y-129846071D01*
X165743525Y-129878781D01*
X165735491Y-129910857D01*
X165724351Y-129941991D01*
X165710213Y-129971884D01*
X165693213Y-130000247D01*
X165673515Y-130026807D01*
X165651308Y-130051308D01*
X165626807Y-130073515D01*
X165600247Y-130093213D01*
X165571884Y-130110213D01*
X165541991Y-130124351D01*
X165510857Y-130135491D01*
X165478781Y-130143525D01*
X165446071Y-130148377D01*
X165413044Y-130150000D01*
X164536956Y-130150000D01*
X164503929Y-130148377D01*
X164471219Y-130143525D01*
X164439143Y-130135491D01*
X164408009Y-130124351D01*
X164378116Y-130110213D01*
X164349753Y-130093213D01*
X164323193Y-130073515D01*
X164298692Y-130051308D01*
X164276485Y-130026807D01*
X164256787Y-130000247D01*
X164239787Y-129971884D01*
X164225649Y-129941991D01*
X164214509Y-129910857D01*
X164206475Y-129878781D01*
X164201623Y-129846071D01*
X164200000Y-129813044D01*
X164200000Y-128686956D01*
X164201623Y-128653929D01*
X164206475Y-128621219D01*
X164214509Y-128589143D01*
X164225649Y-128558009D01*
X164239787Y-128528116D01*
X164256787Y-128499753D01*
X164276485Y-128473193D01*
X164298692Y-128448692D01*
X164323193Y-128426485D01*
X164349753Y-128406787D01*
X164378116Y-128389787D01*
X164408009Y-128375649D01*
X164439143Y-128364509D01*
X164471219Y-128356475D01*
X164503929Y-128351623D01*
X164536956Y-128350000D01*
X165413044Y-128350000D01*
X165446071Y-128351623D01*
X165446071Y-128351623D01*
G37*
D12*
X164975000Y-129250000D03*
D16*
X162143269Y-123409926D03*
X164043269Y-123409926D03*
X163093269Y-120789926D03*
D17*
X139100000Y-128980000D03*
X139100000Y-128330000D03*
X139100000Y-127670000D03*
X139100000Y-127020000D03*
X136900000Y-127020000D03*
X136900000Y-127670000D03*
X136900000Y-128330000D03*
X136900000Y-128980000D03*
D18*
X160902862Y-150215305D03*
X160902862Y-151165305D03*
X160902862Y-152115305D03*
X163102862Y-152115305D03*
X163102862Y-150215305D03*
X163102862Y-151165305D03*
X155827862Y-150215305D03*
X155827862Y-151165305D03*
X155827862Y-152115305D03*
X158027862Y-152115305D03*
X158027862Y-150215305D03*
X158027862Y-151165305D03*
X164150000Y-137800000D03*
X164150000Y-138750000D03*
X164150000Y-139700000D03*
X166350000Y-139700000D03*
X166350000Y-137800000D03*
X166350000Y-138750000D03*
D11*
G36*
X142078828Y-134874976D02*
X142111538Y-134879828D01*
X142143614Y-134887862D01*
X142174748Y-134899002D01*
X142204641Y-134913140D01*
X142233004Y-134930140D01*
X142259564Y-134949838D01*
X142284065Y-134972045D01*
X142306272Y-134996546D01*
X142325970Y-135023106D01*
X142342970Y-135051469D01*
X142357108Y-135081362D01*
X142368248Y-135112496D01*
X142376282Y-135144572D01*
X142381134Y-135177282D01*
X142382757Y-135210309D01*
X142382757Y-136336397D01*
X142381134Y-136369424D01*
X142376282Y-136402134D01*
X142368248Y-136434210D01*
X142357108Y-136465344D01*
X142342970Y-136495237D01*
X142325970Y-136523600D01*
X142306272Y-136550160D01*
X142284065Y-136574661D01*
X142259564Y-136596868D01*
X142233004Y-136616566D01*
X142204641Y-136633566D01*
X142174748Y-136647704D01*
X142143614Y-136658844D01*
X142111538Y-136666878D01*
X142078828Y-136671730D01*
X142045801Y-136673353D01*
X141169713Y-136673353D01*
X141136686Y-136671730D01*
X141103976Y-136666878D01*
X141071900Y-136658844D01*
X141040766Y-136647704D01*
X141010873Y-136633566D01*
X140982510Y-136616566D01*
X140955950Y-136596868D01*
X140931449Y-136574661D01*
X140909242Y-136550160D01*
X140889544Y-136523600D01*
X140872544Y-136495237D01*
X140858406Y-136465344D01*
X140847266Y-136434210D01*
X140839232Y-136402134D01*
X140834380Y-136369424D01*
X140832757Y-136336397D01*
X140832757Y-135210309D01*
X140834380Y-135177282D01*
X140839232Y-135144572D01*
X140847266Y-135112496D01*
X140858406Y-135081362D01*
X140872544Y-135051469D01*
X140889544Y-135023106D01*
X140909242Y-134996546D01*
X140931449Y-134972045D01*
X140955950Y-134949838D01*
X140982510Y-134930140D01*
X141010873Y-134913140D01*
X141040766Y-134899002D01*
X141071900Y-134887862D01*
X141103976Y-134879828D01*
X141136686Y-134874976D01*
X141169713Y-134873353D01*
X142045801Y-134873353D01*
X142078828Y-134874976D01*
X142078828Y-134874976D01*
G37*
D12*
X141607757Y-135773353D03*
D11*
G36*
X140028828Y-134874976D02*
X140061538Y-134879828D01*
X140093614Y-134887862D01*
X140124748Y-134899002D01*
X140154641Y-134913140D01*
X140183004Y-134930140D01*
X140209564Y-134949838D01*
X140234065Y-134972045D01*
X140256272Y-134996546D01*
X140275970Y-135023106D01*
X140292970Y-135051469D01*
X140307108Y-135081362D01*
X140318248Y-135112496D01*
X140326282Y-135144572D01*
X140331134Y-135177282D01*
X140332757Y-135210309D01*
X140332757Y-136336397D01*
X140331134Y-136369424D01*
X140326282Y-136402134D01*
X140318248Y-136434210D01*
X140307108Y-136465344D01*
X140292970Y-136495237D01*
X140275970Y-136523600D01*
X140256272Y-136550160D01*
X140234065Y-136574661D01*
X140209564Y-136596868D01*
X140183004Y-136616566D01*
X140154641Y-136633566D01*
X140124748Y-136647704D01*
X140093614Y-136658844D01*
X140061538Y-136666878D01*
X140028828Y-136671730D01*
X139995801Y-136673353D01*
X139119713Y-136673353D01*
X139086686Y-136671730D01*
X139053976Y-136666878D01*
X139021900Y-136658844D01*
X138990766Y-136647704D01*
X138960873Y-136633566D01*
X138932510Y-136616566D01*
X138905950Y-136596868D01*
X138881449Y-136574661D01*
X138859242Y-136550160D01*
X138839544Y-136523600D01*
X138822544Y-136495237D01*
X138808406Y-136465344D01*
X138797266Y-136434210D01*
X138789232Y-136402134D01*
X138784380Y-136369424D01*
X138782757Y-136336397D01*
X138782757Y-135210309D01*
X138784380Y-135177282D01*
X138789232Y-135144572D01*
X138797266Y-135112496D01*
X138808406Y-135081362D01*
X138822544Y-135051469D01*
X138839544Y-135023106D01*
X138859242Y-134996546D01*
X138881449Y-134972045D01*
X138905950Y-134949838D01*
X138932510Y-134930140D01*
X138960873Y-134913140D01*
X138990766Y-134899002D01*
X139021900Y-134887862D01*
X139053976Y-134879828D01*
X139086686Y-134874976D01*
X139119713Y-134873353D01*
X139995801Y-134873353D01*
X140028828Y-134874976D01*
X140028828Y-134874976D01*
G37*
D12*
X139557757Y-135773353D03*
D11*
G36*
X136828828Y-134874976D02*
X136861538Y-134879828D01*
X136893614Y-134887862D01*
X136924748Y-134899002D01*
X136954641Y-134913140D01*
X136983004Y-134930140D01*
X137009564Y-134949838D01*
X137034065Y-134972045D01*
X137056272Y-134996546D01*
X137075970Y-135023106D01*
X137092970Y-135051469D01*
X137107108Y-135081362D01*
X137118248Y-135112496D01*
X137126282Y-135144572D01*
X137131134Y-135177282D01*
X137132757Y-135210309D01*
X137132757Y-136336397D01*
X137131134Y-136369424D01*
X137126282Y-136402134D01*
X137118248Y-136434210D01*
X137107108Y-136465344D01*
X137092970Y-136495237D01*
X137075970Y-136523600D01*
X137056272Y-136550160D01*
X137034065Y-136574661D01*
X137009564Y-136596868D01*
X136983004Y-136616566D01*
X136954641Y-136633566D01*
X136924748Y-136647704D01*
X136893614Y-136658844D01*
X136861538Y-136666878D01*
X136828828Y-136671730D01*
X136795801Y-136673353D01*
X135919713Y-136673353D01*
X135886686Y-136671730D01*
X135853976Y-136666878D01*
X135821900Y-136658844D01*
X135790766Y-136647704D01*
X135760873Y-136633566D01*
X135732510Y-136616566D01*
X135705950Y-136596868D01*
X135681449Y-136574661D01*
X135659242Y-136550160D01*
X135639544Y-136523600D01*
X135622544Y-136495237D01*
X135608406Y-136465344D01*
X135597266Y-136434210D01*
X135589232Y-136402134D01*
X135584380Y-136369424D01*
X135582757Y-136336397D01*
X135582757Y-135210309D01*
X135584380Y-135177282D01*
X135589232Y-135144572D01*
X135597266Y-135112496D01*
X135608406Y-135081362D01*
X135622544Y-135051469D01*
X135639544Y-135023106D01*
X135659242Y-134996546D01*
X135681449Y-134972045D01*
X135705950Y-134949838D01*
X135732510Y-134930140D01*
X135760873Y-134913140D01*
X135790766Y-134899002D01*
X135821900Y-134887862D01*
X135853976Y-134879828D01*
X135886686Y-134874976D01*
X135919713Y-134873353D01*
X136795801Y-134873353D01*
X136828828Y-134874976D01*
X136828828Y-134874976D01*
G37*
D12*
X136357757Y-135773353D03*
D11*
G36*
X134778828Y-134874976D02*
X134811538Y-134879828D01*
X134843614Y-134887862D01*
X134874748Y-134899002D01*
X134904641Y-134913140D01*
X134933004Y-134930140D01*
X134959564Y-134949838D01*
X134984065Y-134972045D01*
X135006272Y-134996546D01*
X135025970Y-135023106D01*
X135042970Y-135051469D01*
X135057108Y-135081362D01*
X135068248Y-135112496D01*
X135076282Y-135144572D01*
X135081134Y-135177282D01*
X135082757Y-135210309D01*
X135082757Y-136336397D01*
X135081134Y-136369424D01*
X135076282Y-136402134D01*
X135068248Y-136434210D01*
X135057108Y-136465344D01*
X135042970Y-136495237D01*
X135025970Y-136523600D01*
X135006272Y-136550160D01*
X134984065Y-136574661D01*
X134959564Y-136596868D01*
X134933004Y-136616566D01*
X134904641Y-136633566D01*
X134874748Y-136647704D01*
X134843614Y-136658844D01*
X134811538Y-136666878D01*
X134778828Y-136671730D01*
X134745801Y-136673353D01*
X133869713Y-136673353D01*
X133836686Y-136671730D01*
X133803976Y-136666878D01*
X133771900Y-136658844D01*
X133740766Y-136647704D01*
X133710873Y-136633566D01*
X133682510Y-136616566D01*
X133655950Y-136596868D01*
X133631449Y-136574661D01*
X133609242Y-136550160D01*
X133589544Y-136523600D01*
X133572544Y-136495237D01*
X133558406Y-136465344D01*
X133547266Y-136434210D01*
X133539232Y-136402134D01*
X133534380Y-136369424D01*
X133532757Y-136336397D01*
X133532757Y-135210309D01*
X133534380Y-135177282D01*
X133539232Y-135144572D01*
X133547266Y-135112496D01*
X133558406Y-135081362D01*
X133572544Y-135051469D01*
X133589544Y-135023106D01*
X133609242Y-134996546D01*
X133631449Y-134972045D01*
X133655950Y-134949838D01*
X133682510Y-134930140D01*
X133710873Y-134913140D01*
X133740766Y-134899002D01*
X133771900Y-134887862D01*
X133803976Y-134879828D01*
X133836686Y-134874976D01*
X133869713Y-134873353D01*
X134745801Y-134873353D01*
X134778828Y-134874976D01*
X134778828Y-134874976D01*
G37*
D12*
X134307757Y-135773353D03*
D11*
G36*
X140178828Y-139039492D02*
X140211538Y-139044344D01*
X140243614Y-139052378D01*
X140274748Y-139063518D01*
X140304641Y-139077656D01*
X140333004Y-139094656D01*
X140359564Y-139114354D01*
X140384065Y-139136561D01*
X140406272Y-139161062D01*
X140425970Y-139187622D01*
X140442970Y-139215985D01*
X140457108Y-139245878D01*
X140468248Y-139277012D01*
X140476282Y-139309088D01*
X140481134Y-139341798D01*
X140482757Y-139374825D01*
X140482757Y-140250913D01*
X140481134Y-140283940D01*
X140476282Y-140316650D01*
X140468248Y-140348726D01*
X140457108Y-140379860D01*
X140442970Y-140409753D01*
X140425970Y-140438116D01*
X140406272Y-140464676D01*
X140384065Y-140489177D01*
X140359564Y-140511384D01*
X140333004Y-140531082D01*
X140304641Y-140548082D01*
X140274748Y-140562220D01*
X140243614Y-140573360D01*
X140211538Y-140581394D01*
X140178828Y-140586246D01*
X140145801Y-140587869D01*
X139019713Y-140587869D01*
X138986686Y-140586246D01*
X138953976Y-140581394D01*
X138921900Y-140573360D01*
X138890766Y-140562220D01*
X138860873Y-140548082D01*
X138832510Y-140531082D01*
X138805950Y-140511384D01*
X138781449Y-140489177D01*
X138759242Y-140464676D01*
X138739544Y-140438116D01*
X138722544Y-140409753D01*
X138708406Y-140379860D01*
X138697266Y-140348726D01*
X138689232Y-140316650D01*
X138684380Y-140283940D01*
X138682757Y-140250913D01*
X138682757Y-139374825D01*
X138684380Y-139341798D01*
X138689232Y-139309088D01*
X138697266Y-139277012D01*
X138708406Y-139245878D01*
X138722544Y-139215985D01*
X138739544Y-139187622D01*
X138759242Y-139161062D01*
X138781449Y-139136561D01*
X138805950Y-139114354D01*
X138832510Y-139094656D01*
X138860873Y-139077656D01*
X138890766Y-139063518D01*
X138921900Y-139052378D01*
X138953976Y-139044344D01*
X138986686Y-139039492D01*
X139019713Y-139037869D01*
X140145801Y-139037869D01*
X140178828Y-139039492D01*
X140178828Y-139039492D01*
G37*
D12*
X139582757Y-139812869D03*
D11*
G36*
X140178828Y-136989492D02*
X140211538Y-136994344D01*
X140243614Y-137002378D01*
X140274748Y-137013518D01*
X140304641Y-137027656D01*
X140333004Y-137044656D01*
X140359564Y-137064354D01*
X140384065Y-137086561D01*
X140406272Y-137111062D01*
X140425970Y-137137622D01*
X140442970Y-137165985D01*
X140457108Y-137195878D01*
X140468248Y-137227012D01*
X140476282Y-137259088D01*
X140481134Y-137291798D01*
X140482757Y-137324825D01*
X140482757Y-138200913D01*
X140481134Y-138233940D01*
X140476282Y-138266650D01*
X140468248Y-138298726D01*
X140457108Y-138329860D01*
X140442970Y-138359753D01*
X140425970Y-138388116D01*
X140406272Y-138414676D01*
X140384065Y-138439177D01*
X140359564Y-138461384D01*
X140333004Y-138481082D01*
X140304641Y-138498082D01*
X140274748Y-138512220D01*
X140243614Y-138523360D01*
X140211538Y-138531394D01*
X140178828Y-138536246D01*
X140145801Y-138537869D01*
X139019713Y-138537869D01*
X138986686Y-138536246D01*
X138953976Y-138531394D01*
X138921900Y-138523360D01*
X138890766Y-138512220D01*
X138860873Y-138498082D01*
X138832510Y-138481082D01*
X138805950Y-138461384D01*
X138781449Y-138439177D01*
X138759242Y-138414676D01*
X138739544Y-138388116D01*
X138722544Y-138359753D01*
X138708406Y-138329860D01*
X138697266Y-138298726D01*
X138689232Y-138266650D01*
X138684380Y-138233940D01*
X138682757Y-138200913D01*
X138682757Y-137324825D01*
X138684380Y-137291798D01*
X138689232Y-137259088D01*
X138697266Y-137227012D01*
X138708406Y-137195878D01*
X138722544Y-137165985D01*
X138739544Y-137137622D01*
X138759242Y-137111062D01*
X138781449Y-137086561D01*
X138805950Y-137064354D01*
X138832510Y-137044656D01*
X138860873Y-137027656D01*
X138890766Y-137013518D01*
X138921900Y-137002378D01*
X138953976Y-136994344D01*
X138986686Y-136989492D01*
X139019713Y-136987869D01*
X140145801Y-136987869D01*
X140178828Y-136989492D01*
X140178828Y-136989492D01*
G37*
D12*
X139582757Y-137762869D03*
D11*
G36*
X136928828Y-136989492D02*
X136961538Y-136994344D01*
X136993614Y-137002378D01*
X137024748Y-137013518D01*
X137054641Y-137027656D01*
X137083004Y-137044656D01*
X137109564Y-137064354D01*
X137134065Y-137086561D01*
X137156272Y-137111062D01*
X137175970Y-137137622D01*
X137192970Y-137165985D01*
X137207108Y-137195878D01*
X137218248Y-137227012D01*
X137226282Y-137259088D01*
X137231134Y-137291798D01*
X137232757Y-137324825D01*
X137232757Y-138200913D01*
X137231134Y-138233940D01*
X137226282Y-138266650D01*
X137218248Y-138298726D01*
X137207108Y-138329860D01*
X137192970Y-138359753D01*
X137175970Y-138388116D01*
X137156272Y-138414676D01*
X137134065Y-138439177D01*
X137109564Y-138461384D01*
X137083004Y-138481082D01*
X137054641Y-138498082D01*
X137024748Y-138512220D01*
X136993614Y-138523360D01*
X136961538Y-138531394D01*
X136928828Y-138536246D01*
X136895801Y-138537869D01*
X135769713Y-138537869D01*
X135736686Y-138536246D01*
X135703976Y-138531394D01*
X135671900Y-138523360D01*
X135640766Y-138512220D01*
X135610873Y-138498082D01*
X135582510Y-138481082D01*
X135555950Y-138461384D01*
X135531449Y-138439177D01*
X135509242Y-138414676D01*
X135489544Y-138388116D01*
X135472544Y-138359753D01*
X135458406Y-138329860D01*
X135447266Y-138298726D01*
X135439232Y-138266650D01*
X135434380Y-138233940D01*
X135432757Y-138200913D01*
X135432757Y-137324825D01*
X135434380Y-137291798D01*
X135439232Y-137259088D01*
X135447266Y-137227012D01*
X135458406Y-137195878D01*
X135472544Y-137165985D01*
X135489544Y-137137622D01*
X135509242Y-137111062D01*
X135531449Y-137086561D01*
X135555950Y-137064354D01*
X135582510Y-137044656D01*
X135610873Y-137027656D01*
X135640766Y-137013518D01*
X135671900Y-137002378D01*
X135703976Y-136994344D01*
X135736686Y-136989492D01*
X135769713Y-136987869D01*
X136895801Y-136987869D01*
X136928828Y-136989492D01*
X136928828Y-136989492D01*
G37*
D12*
X136332757Y-137762869D03*
D11*
G36*
X136928828Y-139039492D02*
X136961538Y-139044344D01*
X136993614Y-139052378D01*
X137024748Y-139063518D01*
X137054641Y-139077656D01*
X137083004Y-139094656D01*
X137109564Y-139114354D01*
X137134065Y-139136561D01*
X137156272Y-139161062D01*
X137175970Y-139187622D01*
X137192970Y-139215985D01*
X137207108Y-139245878D01*
X137218248Y-139277012D01*
X137226282Y-139309088D01*
X137231134Y-139341798D01*
X137232757Y-139374825D01*
X137232757Y-140250913D01*
X137231134Y-140283940D01*
X137226282Y-140316650D01*
X137218248Y-140348726D01*
X137207108Y-140379860D01*
X137192970Y-140409753D01*
X137175970Y-140438116D01*
X137156272Y-140464676D01*
X137134065Y-140489177D01*
X137109564Y-140511384D01*
X137083004Y-140531082D01*
X137054641Y-140548082D01*
X137024748Y-140562220D01*
X136993614Y-140573360D01*
X136961538Y-140581394D01*
X136928828Y-140586246D01*
X136895801Y-140587869D01*
X135769713Y-140587869D01*
X135736686Y-140586246D01*
X135703976Y-140581394D01*
X135671900Y-140573360D01*
X135640766Y-140562220D01*
X135610873Y-140548082D01*
X135582510Y-140531082D01*
X135555950Y-140511384D01*
X135531449Y-140489177D01*
X135509242Y-140464676D01*
X135489544Y-140438116D01*
X135472544Y-140409753D01*
X135458406Y-140379860D01*
X135447266Y-140348726D01*
X135439232Y-140316650D01*
X135434380Y-140283940D01*
X135432757Y-140250913D01*
X135432757Y-139374825D01*
X135434380Y-139341798D01*
X135439232Y-139309088D01*
X135447266Y-139277012D01*
X135458406Y-139245878D01*
X135472544Y-139215985D01*
X135489544Y-139187622D01*
X135509242Y-139161062D01*
X135531449Y-139136561D01*
X135555950Y-139114354D01*
X135582510Y-139094656D01*
X135610873Y-139077656D01*
X135640766Y-139063518D01*
X135671900Y-139052378D01*
X135703976Y-139044344D01*
X135736686Y-139039492D01*
X135769713Y-139037869D01*
X136895801Y-139037869D01*
X136928828Y-139039492D01*
X136928828Y-139039492D01*
G37*
D12*
X136332757Y-139812869D03*
D14*
X128250000Y-155500000D03*
D15*
X130790000Y-155500000D03*
X133330000Y-155500000D03*
X135870000Y-155500000D03*
X138410000Y-155500000D03*
X140950000Y-155500000D03*
D11*
G36*
X165196071Y-117851623D02*
X165228781Y-117856475D01*
X165260857Y-117864509D01*
X165291991Y-117875649D01*
X165321884Y-117889787D01*
X165350247Y-117906787D01*
X165376807Y-117926485D01*
X165401308Y-117948692D01*
X165423515Y-117973193D01*
X165443213Y-117999753D01*
X165460213Y-118028116D01*
X165474351Y-118058009D01*
X165485491Y-118089143D01*
X165493525Y-118121219D01*
X165498377Y-118153929D01*
X165500000Y-118186956D01*
X165500000Y-119313044D01*
X165498377Y-119346071D01*
X165493525Y-119378781D01*
X165485491Y-119410857D01*
X165474351Y-119441991D01*
X165460213Y-119471884D01*
X165443213Y-119500247D01*
X165423515Y-119526807D01*
X165401308Y-119551308D01*
X165376807Y-119573515D01*
X165350247Y-119593213D01*
X165321884Y-119610213D01*
X165291991Y-119624351D01*
X165260857Y-119635491D01*
X165228781Y-119643525D01*
X165196071Y-119648377D01*
X165163044Y-119650000D01*
X164286956Y-119650000D01*
X164253929Y-119648377D01*
X164221219Y-119643525D01*
X164189143Y-119635491D01*
X164158009Y-119624351D01*
X164128116Y-119610213D01*
X164099753Y-119593213D01*
X164073193Y-119573515D01*
X164048692Y-119551308D01*
X164026485Y-119526807D01*
X164006787Y-119500247D01*
X163989787Y-119471884D01*
X163975649Y-119441991D01*
X163964509Y-119410857D01*
X163956475Y-119378781D01*
X163951623Y-119346071D01*
X163950000Y-119313044D01*
X163950000Y-118186956D01*
X163951623Y-118153929D01*
X163956475Y-118121219D01*
X163964509Y-118089143D01*
X163975649Y-118058009D01*
X163989787Y-118028116D01*
X164006787Y-117999753D01*
X164026485Y-117973193D01*
X164048692Y-117948692D01*
X164073193Y-117926485D01*
X164099753Y-117906787D01*
X164128116Y-117889787D01*
X164158009Y-117875649D01*
X164189143Y-117864509D01*
X164221219Y-117856475D01*
X164253929Y-117851623D01*
X164286956Y-117850000D01*
X165163044Y-117850000D01*
X165196071Y-117851623D01*
X165196071Y-117851623D01*
G37*
D12*
X164725000Y-118750000D03*
D11*
G36*
X167246071Y-117851623D02*
X167278781Y-117856475D01*
X167310857Y-117864509D01*
X167341991Y-117875649D01*
X167371884Y-117889787D01*
X167400247Y-117906787D01*
X167426807Y-117926485D01*
X167451308Y-117948692D01*
X167473515Y-117973193D01*
X167493213Y-117999753D01*
X167510213Y-118028116D01*
X167524351Y-118058009D01*
X167535491Y-118089143D01*
X167543525Y-118121219D01*
X167548377Y-118153929D01*
X167550000Y-118186956D01*
X167550000Y-119313044D01*
X167548377Y-119346071D01*
X167543525Y-119378781D01*
X167535491Y-119410857D01*
X167524351Y-119441991D01*
X167510213Y-119471884D01*
X167493213Y-119500247D01*
X167473515Y-119526807D01*
X167451308Y-119551308D01*
X167426807Y-119573515D01*
X167400247Y-119593213D01*
X167371884Y-119610213D01*
X167341991Y-119624351D01*
X167310857Y-119635491D01*
X167278781Y-119643525D01*
X167246071Y-119648377D01*
X167213044Y-119650000D01*
X166336956Y-119650000D01*
X166303929Y-119648377D01*
X166271219Y-119643525D01*
X166239143Y-119635491D01*
X166208009Y-119624351D01*
X166178116Y-119610213D01*
X166149753Y-119593213D01*
X166123193Y-119573515D01*
X166098692Y-119551308D01*
X166076485Y-119526807D01*
X166056787Y-119500247D01*
X166039787Y-119471884D01*
X166025649Y-119441991D01*
X166014509Y-119410857D01*
X166006475Y-119378781D01*
X166001623Y-119346071D01*
X166000000Y-119313044D01*
X166000000Y-118186956D01*
X166001623Y-118153929D01*
X166006475Y-118121219D01*
X166014509Y-118089143D01*
X166025649Y-118058009D01*
X166039787Y-118028116D01*
X166056787Y-117999753D01*
X166076485Y-117973193D01*
X166098692Y-117948692D01*
X166123193Y-117926485D01*
X166149753Y-117906787D01*
X166178116Y-117889787D01*
X166208009Y-117875649D01*
X166239143Y-117864509D01*
X166271219Y-117856475D01*
X166303929Y-117851623D01*
X166336956Y-117850000D01*
X167213044Y-117850000D01*
X167246071Y-117851623D01*
X167246071Y-117851623D01*
G37*
D12*
X166775000Y-118750000D03*
D11*
G36*
X163346071Y-115701623D02*
X163378781Y-115706475D01*
X163410857Y-115714509D01*
X163441991Y-115725649D01*
X163471884Y-115739787D01*
X163500247Y-115756787D01*
X163526807Y-115776485D01*
X163551308Y-115798692D01*
X163573515Y-115823193D01*
X163593213Y-115849753D01*
X163610213Y-115878116D01*
X163624351Y-115908009D01*
X163635491Y-115939143D01*
X163643525Y-115971219D01*
X163648377Y-116003929D01*
X163650000Y-116036956D01*
X163650000Y-116913044D01*
X163648377Y-116946071D01*
X163643525Y-116978781D01*
X163635491Y-117010857D01*
X163624351Y-117041991D01*
X163610213Y-117071884D01*
X163593213Y-117100247D01*
X163573515Y-117126807D01*
X163551308Y-117151308D01*
X163526807Y-117173515D01*
X163500247Y-117193213D01*
X163471884Y-117210213D01*
X163441991Y-117224351D01*
X163410857Y-117235491D01*
X163378781Y-117243525D01*
X163346071Y-117248377D01*
X163313044Y-117250000D01*
X162186956Y-117250000D01*
X162153929Y-117248377D01*
X162121219Y-117243525D01*
X162089143Y-117235491D01*
X162058009Y-117224351D01*
X162028116Y-117210213D01*
X161999753Y-117193213D01*
X161973193Y-117173515D01*
X161948692Y-117151308D01*
X161926485Y-117126807D01*
X161906787Y-117100247D01*
X161889787Y-117071884D01*
X161875649Y-117041991D01*
X161864509Y-117010857D01*
X161856475Y-116978781D01*
X161851623Y-116946071D01*
X161850000Y-116913044D01*
X161850000Y-116036956D01*
X161851623Y-116003929D01*
X161856475Y-115971219D01*
X161864509Y-115939143D01*
X161875649Y-115908009D01*
X161889787Y-115878116D01*
X161906787Y-115849753D01*
X161926485Y-115823193D01*
X161948692Y-115798692D01*
X161973193Y-115776485D01*
X161999753Y-115756787D01*
X162028116Y-115739787D01*
X162058009Y-115725649D01*
X162089143Y-115714509D01*
X162121219Y-115706475D01*
X162153929Y-115701623D01*
X162186956Y-115700000D01*
X163313044Y-115700000D01*
X163346071Y-115701623D01*
X163346071Y-115701623D01*
G37*
D12*
X162750000Y-116475000D03*
D11*
G36*
X163346071Y-117751623D02*
X163378781Y-117756475D01*
X163410857Y-117764509D01*
X163441991Y-117775649D01*
X163471884Y-117789787D01*
X163500247Y-117806787D01*
X163526807Y-117826485D01*
X163551308Y-117848692D01*
X163573515Y-117873193D01*
X163593213Y-117899753D01*
X163610213Y-117928116D01*
X163624351Y-117958009D01*
X163635491Y-117989143D01*
X163643525Y-118021219D01*
X163648377Y-118053929D01*
X163650000Y-118086956D01*
X163650000Y-118963044D01*
X163648377Y-118996071D01*
X163643525Y-119028781D01*
X163635491Y-119060857D01*
X163624351Y-119091991D01*
X163610213Y-119121884D01*
X163593213Y-119150247D01*
X163573515Y-119176807D01*
X163551308Y-119201308D01*
X163526807Y-119223515D01*
X163500247Y-119243213D01*
X163471884Y-119260213D01*
X163441991Y-119274351D01*
X163410857Y-119285491D01*
X163378781Y-119293525D01*
X163346071Y-119298377D01*
X163313044Y-119300000D01*
X162186956Y-119300000D01*
X162153929Y-119298377D01*
X162121219Y-119293525D01*
X162089143Y-119285491D01*
X162058009Y-119274351D01*
X162028116Y-119260213D01*
X161999753Y-119243213D01*
X161973193Y-119223515D01*
X161948692Y-119201308D01*
X161926485Y-119176807D01*
X161906787Y-119150247D01*
X161889787Y-119121884D01*
X161875649Y-119091991D01*
X161864509Y-119060857D01*
X161856475Y-119028781D01*
X161851623Y-118996071D01*
X161850000Y-118963044D01*
X161850000Y-118086956D01*
X161851623Y-118053929D01*
X161856475Y-118021219D01*
X161864509Y-117989143D01*
X161875649Y-117958009D01*
X161889787Y-117928116D01*
X161906787Y-117899753D01*
X161926485Y-117873193D01*
X161948692Y-117848692D01*
X161973193Y-117826485D01*
X161999753Y-117806787D01*
X162028116Y-117789787D01*
X162058009Y-117775649D01*
X162089143Y-117764509D01*
X162121219Y-117756475D01*
X162153929Y-117751623D01*
X162186956Y-117750000D01*
X163313044Y-117750000D01*
X163346071Y-117751623D01*
X163346071Y-117751623D01*
G37*
D12*
X162750000Y-118525000D03*
D11*
G36*
X168596071Y-150751623D02*
X168628781Y-150756475D01*
X168660857Y-150764509D01*
X168691991Y-150775649D01*
X168721884Y-150789787D01*
X168750247Y-150806787D01*
X168776807Y-150826485D01*
X168801308Y-150848692D01*
X168823515Y-150873193D01*
X168843213Y-150899753D01*
X168860213Y-150928116D01*
X168874351Y-150958009D01*
X168885491Y-150989143D01*
X168893525Y-151021219D01*
X168898377Y-151053929D01*
X168900000Y-151086956D01*
X168900000Y-151963044D01*
X168898377Y-151996071D01*
X168893525Y-152028781D01*
X168885491Y-152060857D01*
X168874351Y-152091991D01*
X168860213Y-152121884D01*
X168843213Y-152150247D01*
X168823515Y-152176807D01*
X168801308Y-152201308D01*
X168776807Y-152223515D01*
X168750247Y-152243213D01*
X168721884Y-152260213D01*
X168691991Y-152274351D01*
X168660857Y-152285491D01*
X168628781Y-152293525D01*
X168596071Y-152298377D01*
X168563044Y-152300000D01*
X167436956Y-152300000D01*
X167403929Y-152298377D01*
X167371219Y-152293525D01*
X167339143Y-152285491D01*
X167308009Y-152274351D01*
X167278116Y-152260213D01*
X167249753Y-152243213D01*
X167223193Y-152223515D01*
X167198692Y-152201308D01*
X167176485Y-152176807D01*
X167156787Y-152150247D01*
X167139787Y-152121884D01*
X167125649Y-152091991D01*
X167114509Y-152060857D01*
X167106475Y-152028781D01*
X167101623Y-151996071D01*
X167100000Y-151963044D01*
X167100000Y-151086956D01*
X167101623Y-151053929D01*
X167106475Y-151021219D01*
X167114509Y-150989143D01*
X167125649Y-150958009D01*
X167139787Y-150928116D01*
X167156787Y-150899753D01*
X167176485Y-150873193D01*
X167198692Y-150848692D01*
X167223193Y-150826485D01*
X167249753Y-150806787D01*
X167278116Y-150789787D01*
X167308009Y-150775649D01*
X167339143Y-150764509D01*
X167371219Y-150756475D01*
X167403929Y-150751623D01*
X167436956Y-150750000D01*
X168563044Y-150750000D01*
X168596071Y-150751623D01*
X168596071Y-150751623D01*
G37*
D12*
X168000000Y-151525000D03*
D11*
G36*
X168596071Y-148701623D02*
X168628781Y-148706475D01*
X168660857Y-148714509D01*
X168691991Y-148725649D01*
X168721884Y-148739787D01*
X168750247Y-148756787D01*
X168776807Y-148776485D01*
X168801308Y-148798692D01*
X168823515Y-148823193D01*
X168843213Y-148849753D01*
X168860213Y-148878116D01*
X168874351Y-148908009D01*
X168885491Y-148939143D01*
X168893525Y-148971219D01*
X168898377Y-149003929D01*
X168900000Y-149036956D01*
X168900000Y-149913044D01*
X168898377Y-149946071D01*
X168893525Y-149978781D01*
X168885491Y-150010857D01*
X168874351Y-150041991D01*
X168860213Y-150071884D01*
X168843213Y-150100247D01*
X168823515Y-150126807D01*
X168801308Y-150151308D01*
X168776807Y-150173515D01*
X168750247Y-150193213D01*
X168721884Y-150210213D01*
X168691991Y-150224351D01*
X168660857Y-150235491D01*
X168628781Y-150243525D01*
X168596071Y-150248377D01*
X168563044Y-150250000D01*
X167436956Y-150250000D01*
X167403929Y-150248377D01*
X167371219Y-150243525D01*
X167339143Y-150235491D01*
X167308009Y-150224351D01*
X167278116Y-150210213D01*
X167249753Y-150193213D01*
X167223193Y-150173515D01*
X167198692Y-150151308D01*
X167176485Y-150126807D01*
X167156787Y-150100247D01*
X167139787Y-150071884D01*
X167125649Y-150041991D01*
X167114509Y-150010857D01*
X167106475Y-149978781D01*
X167101623Y-149946071D01*
X167100000Y-149913044D01*
X167100000Y-149036956D01*
X167101623Y-149003929D01*
X167106475Y-148971219D01*
X167114509Y-148939143D01*
X167125649Y-148908009D01*
X167139787Y-148878116D01*
X167156787Y-148849753D01*
X167176485Y-148823193D01*
X167198692Y-148798692D01*
X167223193Y-148776485D01*
X167249753Y-148756787D01*
X167278116Y-148739787D01*
X167308009Y-148725649D01*
X167339143Y-148714509D01*
X167371219Y-148706475D01*
X167403929Y-148701623D01*
X167436956Y-148700000D01*
X168563044Y-148700000D01*
X168596071Y-148701623D01*
X168596071Y-148701623D01*
G37*
D12*
X168000000Y-149475000D03*
D14*
X175250000Y-137500000D03*
D15*
X175250000Y-134960000D03*
X175250000Y-132420000D03*
X175250000Y-129880000D03*
X175250000Y-127340000D03*
X175250000Y-124800000D03*
X175250000Y-154689415D03*
X175250000Y-152149415D03*
X175250000Y-149609415D03*
X175250000Y-147069415D03*
X175250000Y-144529415D03*
D14*
X175250000Y-141989415D03*
D11*
G36*
X141521071Y-141288640D02*
X141553781Y-141293492D01*
X141585857Y-141301526D01*
X141616991Y-141312666D01*
X141646884Y-141326804D01*
X141675247Y-141343804D01*
X141701807Y-141363502D01*
X141726308Y-141385709D01*
X141748515Y-141410210D01*
X141768213Y-141436770D01*
X141785213Y-141465133D01*
X141799351Y-141495026D01*
X141810491Y-141526160D01*
X141818525Y-141558236D01*
X141823377Y-141590946D01*
X141825000Y-141623973D01*
X141825000Y-142750061D01*
X141823377Y-142783088D01*
X141818525Y-142815798D01*
X141810491Y-142847874D01*
X141799351Y-142879008D01*
X141785213Y-142908901D01*
X141768213Y-142937264D01*
X141748515Y-142963824D01*
X141726308Y-142988325D01*
X141701807Y-143010532D01*
X141675247Y-143030230D01*
X141646884Y-143047230D01*
X141616991Y-143061368D01*
X141585857Y-143072508D01*
X141553781Y-143080542D01*
X141521071Y-143085394D01*
X141488044Y-143087017D01*
X140611956Y-143087017D01*
X140578929Y-143085394D01*
X140546219Y-143080542D01*
X140514143Y-143072508D01*
X140483009Y-143061368D01*
X140453116Y-143047230D01*
X140424753Y-143030230D01*
X140398193Y-143010532D01*
X140373692Y-142988325D01*
X140351485Y-142963824D01*
X140331787Y-142937264D01*
X140314787Y-142908901D01*
X140300649Y-142879008D01*
X140289509Y-142847874D01*
X140281475Y-142815798D01*
X140276623Y-142783088D01*
X140275000Y-142750061D01*
X140275000Y-141623973D01*
X140276623Y-141590946D01*
X140281475Y-141558236D01*
X140289509Y-141526160D01*
X140300649Y-141495026D01*
X140314787Y-141465133D01*
X140331787Y-141436770D01*
X140351485Y-141410210D01*
X140373692Y-141385709D01*
X140398193Y-141363502D01*
X140424753Y-141343804D01*
X140453116Y-141326804D01*
X140483009Y-141312666D01*
X140514143Y-141301526D01*
X140546219Y-141293492D01*
X140578929Y-141288640D01*
X140611956Y-141287017D01*
X141488044Y-141287017D01*
X141521071Y-141288640D01*
X141521071Y-141288640D01*
G37*
D12*
X141050000Y-142187017D03*
D11*
G36*
X139471071Y-141288640D02*
X139503781Y-141293492D01*
X139535857Y-141301526D01*
X139566991Y-141312666D01*
X139596884Y-141326804D01*
X139625247Y-141343804D01*
X139651807Y-141363502D01*
X139676308Y-141385709D01*
X139698515Y-141410210D01*
X139718213Y-141436770D01*
X139735213Y-141465133D01*
X139749351Y-141495026D01*
X139760491Y-141526160D01*
X139768525Y-141558236D01*
X139773377Y-141590946D01*
X139775000Y-141623973D01*
X139775000Y-142750061D01*
X139773377Y-142783088D01*
X139768525Y-142815798D01*
X139760491Y-142847874D01*
X139749351Y-142879008D01*
X139735213Y-142908901D01*
X139718213Y-142937264D01*
X139698515Y-142963824D01*
X139676308Y-142988325D01*
X139651807Y-143010532D01*
X139625247Y-143030230D01*
X139596884Y-143047230D01*
X139566991Y-143061368D01*
X139535857Y-143072508D01*
X139503781Y-143080542D01*
X139471071Y-143085394D01*
X139438044Y-143087017D01*
X138561956Y-143087017D01*
X138528929Y-143085394D01*
X138496219Y-143080542D01*
X138464143Y-143072508D01*
X138433009Y-143061368D01*
X138403116Y-143047230D01*
X138374753Y-143030230D01*
X138348193Y-143010532D01*
X138323692Y-142988325D01*
X138301485Y-142963824D01*
X138281787Y-142937264D01*
X138264787Y-142908901D01*
X138250649Y-142879008D01*
X138239509Y-142847874D01*
X138231475Y-142815798D01*
X138226623Y-142783088D01*
X138225000Y-142750061D01*
X138225000Y-141623973D01*
X138226623Y-141590946D01*
X138231475Y-141558236D01*
X138239509Y-141526160D01*
X138250649Y-141495026D01*
X138264787Y-141465133D01*
X138281787Y-141436770D01*
X138301485Y-141410210D01*
X138323692Y-141385709D01*
X138348193Y-141363502D01*
X138374753Y-141343804D01*
X138403116Y-141326804D01*
X138433009Y-141312666D01*
X138464143Y-141301526D01*
X138496219Y-141293492D01*
X138528929Y-141288640D01*
X138561956Y-141287017D01*
X139438044Y-141287017D01*
X139471071Y-141288640D01*
X139471071Y-141288640D01*
G37*
D12*
X139000000Y-142187017D03*
D11*
G36*
X136828225Y-141288640D02*
X136860935Y-141293492D01*
X136893011Y-141301526D01*
X136924145Y-141312666D01*
X136954038Y-141326804D01*
X136982401Y-141343804D01*
X137008961Y-141363502D01*
X137033462Y-141385709D01*
X137055669Y-141410210D01*
X137075367Y-141436770D01*
X137092367Y-141465133D01*
X137106505Y-141495026D01*
X137117645Y-141526160D01*
X137125679Y-141558236D01*
X137130531Y-141590946D01*
X137132154Y-141623973D01*
X137132154Y-142750061D01*
X137130531Y-142783088D01*
X137125679Y-142815798D01*
X137117645Y-142847874D01*
X137106505Y-142879008D01*
X137092367Y-142908901D01*
X137075367Y-142937264D01*
X137055669Y-142963824D01*
X137033462Y-142988325D01*
X137008961Y-143010532D01*
X136982401Y-143030230D01*
X136954038Y-143047230D01*
X136924145Y-143061368D01*
X136893011Y-143072508D01*
X136860935Y-143080542D01*
X136828225Y-143085394D01*
X136795198Y-143087017D01*
X135919110Y-143087017D01*
X135886083Y-143085394D01*
X135853373Y-143080542D01*
X135821297Y-143072508D01*
X135790163Y-143061368D01*
X135760270Y-143047230D01*
X135731907Y-143030230D01*
X135705347Y-143010532D01*
X135680846Y-142988325D01*
X135658639Y-142963824D01*
X135638941Y-142937264D01*
X135621941Y-142908901D01*
X135607803Y-142879008D01*
X135596663Y-142847874D01*
X135588629Y-142815798D01*
X135583777Y-142783088D01*
X135582154Y-142750061D01*
X135582154Y-141623973D01*
X135583777Y-141590946D01*
X135588629Y-141558236D01*
X135596663Y-141526160D01*
X135607803Y-141495026D01*
X135621941Y-141465133D01*
X135638941Y-141436770D01*
X135658639Y-141410210D01*
X135680846Y-141385709D01*
X135705347Y-141363502D01*
X135731907Y-141343804D01*
X135760270Y-141326804D01*
X135790163Y-141312666D01*
X135821297Y-141301526D01*
X135853373Y-141293492D01*
X135886083Y-141288640D01*
X135919110Y-141287017D01*
X136795198Y-141287017D01*
X136828225Y-141288640D01*
X136828225Y-141288640D01*
G37*
D12*
X136357154Y-142187017D03*
D11*
G36*
X134778225Y-141288640D02*
X134810935Y-141293492D01*
X134843011Y-141301526D01*
X134874145Y-141312666D01*
X134904038Y-141326804D01*
X134932401Y-141343804D01*
X134958961Y-141363502D01*
X134983462Y-141385709D01*
X135005669Y-141410210D01*
X135025367Y-141436770D01*
X135042367Y-141465133D01*
X135056505Y-141495026D01*
X135067645Y-141526160D01*
X135075679Y-141558236D01*
X135080531Y-141590946D01*
X135082154Y-141623973D01*
X135082154Y-142750061D01*
X135080531Y-142783088D01*
X135075679Y-142815798D01*
X135067645Y-142847874D01*
X135056505Y-142879008D01*
X135042367Y-142908901D01*
X135025367Y-142937264D01*
X135005669Y-142963824D01*
X134983462Y-142988325D01*
X134958961Y-143010532D01*
X134932401Y-143030230D01*
X134904038Y-143047230D01*
X134874145Y-143061368D01*
X134843011Y-143072508D01*
X134810935Y-143080542D01*
X134778225Y-143085394D01*
X134745198Y-143087017D01*
X133869110Y-143087017D01*
X133836083Y-143085394D01*
X133803373Y-143080542D01*
X133771297Y-143072508D01*
X133740163Y-143061368D01*
X133710270Y-143047230D01*
X133681907Y-143030230D01*
X133655347Y-143010532D01*
X133630846Y-142988325D01*
X133608639Y-142963824D01*
X133588941Y-142937264D01*
X133571941Y-142908901D01*
X133557803Y-142879008D01*
X133546663Y-142847874D01*
X133538629Y-142815798D01*
X133533777Y-142783088D01*
X133532154Y-142750061D01*
X133532154Y-141623973D01*
X133533777Y-141590946D01*
X133538629Y-141558236D01*
X133546663Y-141526160D01*
X133557803Y-141495026D01*
X133571941Y-141465133D01*
X133588941Y-141436770D01*
X133608639Y-141410210D01*
X133630846Y-141385709D01*
X133655347Y-141363502D01*
X133681907Y-141343804D01*
X133710270Y-141326804D01*
X133740163Y-141312666D01*
X133771297Y-141301526D01*
X133803373Y-141293492D01*
X133836083Y-141288640D01*
X133869110Y-141287017D01*
X134745198Y-141287017D01*
X134778225Y-141288640D01*
X134778225Y-141288640D01*
G37*
D12*
X134307154Y-142187017D03*
D11*
G36*
X164446071Y-124601623D02*
X164478781Y-124606475D01*
X164510857Y-124614509D01*
X164541991Y-124625649D01*
X164571884Y-124639787D01*
X164600247Y-124656787D01*
X164626807Y-124676485D01*
X164651308Y-124698692D01*
X164673515Y-124723193D01*
X164693213Y-124749753D01*
X164710213Y-124778116D01*
X164724351Y-124808009D01*
X164735491Y-124839143D01*
X164743525Y-124871219D01*
X164748377Y-124903929D01*
X164750000Y-124936956D01*
X164750000Y-126063044D01*
X164748377Y-126096071D01*
X164743525Y-126128781D01*
X164735491Y-126160857D01*
X164724351Y-126191991D01*
X164710213Y-126221884D01*
X164693213Y-126250247D01*
X164673515Y-126276807D01*
X164651308Y-126301308D01*
X164626807Y-126323515D01*
X164600247Y-126343213D01*
X164571884Y-126360213D01*
X164541991Y-126374351D01*
X164510857Y-126385491D01*
X164478781Y-126393525D01*
X164446071Y-126398377D01*
X164413044Y-126400000D01*
X163536956Y-126400000D01*
X163503929Y-126398377D01*
X163471219Y-126393525D01*
X163439143Y-126385491D01*
X163408009Y-126374351D01*
X163378116Y-126360213D01*
X163349753Y-126343213D01*
X163323193Y-126323515D01*
X163298692Y-126301308D01*
X163276485Y-126276807D01*
X163256787Y-126250247D01*
X163239787Y-126221884D01*
X163225649Y-126191991D01*
X163214509Y-126160857D01*
X163206475Y-126128781D01*
X163201623Y-126096071D01*
X163200000Y-126063044D01*
X163200000Y-124936956D01*
X163201623Y-124903929D01*
X163206475Y-124871219D01*
X163214509Y-124839143D01*
X163225649Y-124808009D01*
X163239787Y-124778116D01*
X163256787Y-124749753D01*
X163276485Y-124723193D01*
X163298692Y-124698692D01*
X163323193Y-124676485D01*
X163349753Y-124656787D01*
X163378116Y-124639787D01*
X163408009Y-124625649D01*
X163439143Y-124614509D01*
X163471219Y-124606475D01*
X163503929Y-124601623D01*
X163536956Y-124600000D01*
X164413044Y-124600000D01*
X164446071Y-124601623D01*
X164446071Y-124601623D01*
G37*
D12*
X163975000Y-125500000D03*
D11*
G36*
X166496071Y-124601623D02*
X166528781Y-124606475D01*
X166560857Y-124614509D01*
X166591991Y-124625649D01*
X166621884Y-124639787D01*
X166650247Y-124656787D01*
X166676807Y-124676485D01*
X166701308Y-124698692D01*
X166723515Y-124723193D01*
X166743213Y-124749753D01*
X166760213Y-124778116D01*
X166774351Y-124808009D01*
X166785491Y-124839143D01*
X166793525Y-124871219D01*
X166798377Y-124903929D01*
X166800000Y-124936956D01*
X166800000Y-126063044D01*
X166798377Y-126096071D01*
X166793525Y-126128781D01*
X166785491Y-126160857D01*
X166774351Y-126191991D01*
X166760213Y-126221884D01*
X166743213Y-126250247D01*
X166723515Y-126276807D01*
X166701308Y-126301308D01*
X166676807Y-126323515D01*
X166650247Y-126343213D01*
X166621884Y-126360213D01*
X166591991Y-126374351D01*
X166560857Y-126385491D01*
X166528781Y-126393525D01*
X166496071Y-126398377D01*
X166463044Y-126400000D01*
X165586956Y-126400000D01*
X165553929Y-126398377D01*
X165521219Y-126393525D01*
X165489143Y-126385491D01*
X165458009Y-126374351D01*
X165428116Y-126360213D01*
X165399753Y-126343213D01*
X165373193Y-126323515D01*
X165348692Y-126301308D01*
X165326485Y-126276807D01*
X165306787Y-126250247D01*
X165289787Y-126221884D01*
X165275649Y-126191991D01*
X165264509Y-126160857D01*
X165256475Y-126128781D01*
X165251623Y-126096071D01*
X165250000Y-126063044D01*
X165250000Y-124936956D01*
X165251623Y-124903929D01*
X165256475Y-124871219D01*
X165264509Y-124839143D01*
X165275649Y-124808009D01*
X165289787Y-124778116D01*
X165306787Y-124749753D01*
X165326485Y-124723193D01*
X165348692Y-124698692D01*
X165373193Y-124676485D01*
X165399753Y-124656787D01*
X165428116Y-124639787D01*
X165458009Y-124625649D01*
X165489143Y-124614509D01*
X165521219Y-124606475D01*
X165553929Y-124601623D01*
X165586956Y-124600000D01*
X166463044Y-124600000D01*
X166496071Y-124601623D01*
X166496071Y-124601623D01*
G37*
D12*
X166025000Y-125500000D03*
D11*
G36*
X169346071Y-116701623D02*
X169378781Y-116706475D01*
X169410857Y-116714509D01*
X169441991Y-116725649D01*
X169471884Y-116739787D01*
X169500247Y-116756787D01*
X169526807Y-116776485D01*
X169551308Y-116798692D01*
X169573515Y-116823193D01*
X169593213Y-116849753D01*
X169610213Y-116878116D01*
X169624351Y-116908009D01*
X169635491Y-116939143D01*
X169643525Y-116971219D01*
X169648377Y-117003929D01*
X169650000Y-117036956D01*
X169650000Y-117913044D01*
X169648377Y-117946071D01*
X169643525Y-117978781D01*
X169635491Y-118010857D01*
X169624351Y-118041991D01*
X169610213Y-118071884D01*
X169593213Y-118100247D01*
X169573515Y-118126807D01*
X169551308Y-118151308D01*
X169526807Y-118173515D01*
X169500247Y-118193213D01*
X169471884Y-118210213D01*
X169441991Y-118224351D01*
X169410857Y-118235491D01*
X169378781Y-118243525D01*
X169346071Y-118248377D01*
X169313044Y-118250000D01*
X168186956Y-118250000D01*
X168153929Y-118248377D01*
X168121219Y-118243525D01*
X168089143Y-118235491D01*
X168058009Y-118224351D01*
X168028116Y-118210213D01*
X167999753Y-118193213D01*
X167973193Y-118173515D01*
X167948692Y-118151308D01*
X167926485Y-118126807D01*
X167906787Y-118100247D01*
X167889787Y-118071884D01*
X167875649Y-118041991D01*
X167864509Y-118010857D01*
X167856475Y-117978781D01*
X167851623Y-117946071D01*
X167850000Y-117913044D01*
X167850000Y-117036956D01*
X167851623Y-117003929D01*
X167856475Y-116971219D01*
X167864509Y-116939143D01*
X167875649Y-116908009D01*
X167889787Y-116878116D01*
X167906787Y-116849753D01*
X167926485Y-116823193D01*
X167948692Y-116798692D01*
X167973193Y-116776485D01*
X167999753Y-116756787D01*
X168028116Y-116739787D01*
X168058009Y-116725649D01*
X168089143Y-116714509D01*
X168121219Y-116706475D01*
X168153929Y-116701623D01*
X168186956Y-116700000D01*
X169313044Y-116700000D01*
X169346071Y-116701623D01*
X169346071Y-116701623D01*
G37*
D12*
X168750000Y-117475000D03*
D11*
G36*
X169346071Y-118751623D02*
X169378781Y-118756475D01*
X169410857Y-118764509D01*
X169441991Y-118775649D01*
X169471884Y-118789787D01*
X169500247Y-118806787D01*
X169526807Y-118826485D01*
X169551308Y-118848692D01*
X169573515Y-118873193D01*
X169593213Y-118899753D01*
X169610213Y-118928116D01*
X169624351Y-118958009D01*
X169635491Y-118989143D01*
X169643525Y-119021219D01*
X169648377Y-119053929D01*
X169650000Y-119086956D01*
X169650000Y-119963044D01*
X169648377Y-119996071D01*
X169643525Y-120028781D01*
X169635491Y-120060857D01*
X169624351Y-120091991D01*
X169610213Y-120121884D01*
X169593213Y-120150247D01*
X169573515Y-120176807D01*
X169551308Y-120201308D01*
X169526807Y-120223515D01*
X169500247Y-120243213D01*
X169471884Y-120260213D01*
X169441991Y-120274351D01*
X169410857Y-120285491D01*
X169378781Y-120293525D01*
X169346071Y-120298377D01*
X169313044Y-120300000D01*
X168186956Y-120300000D01*
X168153929Y-120298377D01*
X168121219Y-120293525D01*
X168089143Y-120285491D01*
X168058009Y-120274351D01*
X168028116Y-120260213D01*
X167999753Y-120243213D01*
X167973193Y-120223515D01*
X167948692Y-120201308D01*
X167926485Y-120176807D01*
X167906787Y-120150247D01*
X167889787Y-120121884D01*
X167875649Y-120091991D01*
X167864509Y-120060857D01*
X167856475Y-120028781D01*
X167851623Y-119996071D01*
X167850000Y-119963044D01*
X167850000Y-119086956D01*
X167851623Y-119053929D01*
X167856475Y-119021219D01*
X167864509Y-118989143D01*
X167875649Y-118958009D01*
X167889787Y-118928116D01*
X167906787Y-118899753D01*
X167926485Y-118873193D01*
X167948692Y-118848692D01*
X167973193Y-118826485D01*
X167999753Y-118806787D01*
X168028116Y-118789787D01*
X168058009Y-118775649D01*
X168089143Y-118764509D01*
X168121219Y-118756475D01*
X168153929Y-118751623D01*
X168186956Y-118750000D01*
X169313044Y-118750000D01*
X169346071Y-118751623D01*
X169346071Y-118751623D01*
G37*
D12*
X168750000Y-119525000D03*
D14*
X130500000Y-148750000D03*
D15*
X127960000Y-148750000D03*
X130500000Y-146210000D03*
X127960000Y-146210000D03*
X130500000Y-143670000D03*
X127960000Y-143670000D03*
X130500000Y-141130000D03*
X127960000Y-141130000D03*
X130500000Y-138590000D03*
X127960000Y-138590000D03*
X130500000Y-136050000D03*
X127960000Y-136050000D03*
D11*
G36*
X137986207Y-150849530D02*
X138017287Y-150854140D01*
X138047766Y-150861775D01*
X138077350Y-150872360D01*
X138105754Y-150885794D01*
X138132704Y-150901947D01*
X138157942Y-150920665D01*
X138181223Y-150941765D01*
X138202323Y-150965046D01*
X138221041Y-150990284D01*
X138237194Y-151017234D01*
X138250628Y-151045638D01*
X138261213Y-151075222D01*
X138268848Y-151105701D01*
X138273458Y-151136781D01*
X138275000Y-151168164D01*
X138275000Y-152352812D01*
X138273458Y-152384195D01*
X138268848Y-152415275D01*
X138261213Y-152445754D01*
X138250628Y-152475338D01*
X138237194Y-152503742D01*
X138221041Y-152530692D01*
X138202323Y-152555930D01*
X138181223Y-152579211D01*
X138157942Y-152600311D01*
X138132704Y-152619029D01*
X138105754Y-152635182D01*
X138077350Y-152648616D01*
X138047766Y-152659201D01*
X138017287Y-152666836D01*
X137986207Y-152671446D01*
X137954824Y-152672988D01*
X135545176Y-152672988D01*
X135513793Y-152671446D01*
X135482713Y-152666836D01*
X135452234Y-152659201D01*
X135422650Y-152648616D01*
X135394246Y-152635182D01*
X135367296Y-152619029D01*
X135342058Y-152600311D01*
X135318777Y-152579211D01*
X135297677Y-152555930D01*
X135278959Y-152530692D01*
X135262806Y-152503742D01*
X135249372Y-152475338D01*
X135238787Y-152445754D01*
X135231152Y-152415275D01*
X135226542Y-152384195D01*
X135225000Y-152352812D01*
X135225000Y-151168164D01*
X135226542Y-151136781D01*
X135231152Y-151105701D01*
X135238787Y-151075222D01*
X135249372Y-151045638D01*
X135262806Y-151017234D01*
X135278959Y-150990284D01*
X135297677Y-150965046D01*
X135318777Y-150941765D01*
X135342058Y-150920665D01*
X135367296Y-150901947D01*
X135394246Y-150885794D01*
X135422650Y-150872360D01*
X135452234Y-150861775D01*
X135482713Y-150854140D01*
X135513793Y-150849530D01*
X135545176Y-150847988D01*
X137954824Y-150847988D01*
X137986207Y-150849530D01*
X137986207Y-150849530D01*
G37*
D19*
X136750000Y-151760488D03*
D11*
G36*
X137986207Y-147874530D02*
X138017287Y-147879140D01*
X138047766Y-147886775D01*
X138077350Y-147897360D01*
X138105754Y-147910794D01*
X138132704Y-147926947D01*
X138157942Y-147945665D01*
X138181223Y-147966765D01*
X138202323Y-147990046D01*
X138221041Y-148015284D01*
X138237194Y-148042234D01*
X138250628Y-148070638D01*
X138261213Y-148100222D01*
X138268848Y-148130701D01*
X138273458Y-148161781D01*
X138275000Y-148193164D01*
X138275000Y-149377812D01*
X138273458Y-149409195D01*
X138268848Y-149440275D01*
X138261213Y-149470754D01*
X138250628Y-149500338D01*
X138237194Y-149528742D01*
X138221041Y-149555692D01*
X138202323Y-149580930D01*
X138181223Y-149604211D01*
X138157942Y-149625311D01*
X138132704Y-149644029D01*
X138105754Y-149660182D01*
X138077350Y-149673616D01*
X138047766Y-149684201D01*
X138017287Y-149691836D01*
X137986207Y-149696446D01*
X137954824Y-149697988D01*
X135545176Y-149697988D01*
X135513793Y-149696446D01*
X135482713Y-149691836D01*
X135452234Y-149684201D01*
X135422650Y-149673616D01*
X135394246Y-149660182D01*
X135367296Y-149644029D01*
X135342058Y-149625311D01*
X135318777Y-149604211D01*
X135297677Y-149580930D01*
X135278959Y-149555692D01*
X135262806Y-149528742D01*
X135249372Y-149500338D01*
X135238787Y-149470754D01*
X135231152Y-149440275D01*
X135226542Y-149409195D01*
X135225000Y-149377812D01*
X135225000Y-148193164D01*
X135226542Y-148161781D01*
X135231152Y-148130701D01*
X135238787Y-148100222D01*
X135249372Y-148070638D01*
X135262806Y-148042234D01*
X135278959Y-148015284D01*
X135297677Y-147990046D01*
X135318777Y-147966765D01*
X135342058Y-147945665D01*
X135367296Y-147926947D01*
X135394246Y-147910794D01*
X135422650Y-147897360D01*
X135452234Y-147886775D01*
X135482713Y-147879140D01*
X135513793Y-147874530D01*
X135545176Y-147872988D01*
X137954824Y-147872988D01*
X137986207Y-147874530D01*
X137986207Y-147874530D01*
G37*
D19*
X136750000Y-148785488D03*
D11*
G36*
X141318361Y-147874530D02*
X141349441Y-147879140D01*
X141379920Y-147886775D01*
X141409504Y-147897360D01*
X141437908Y-147910794D01*
X141464858Y-147926947D01*
X141490096Y-147945665D01*
X141513377Y-147966765D01*
X141534477Y-147990046D01*
X141553195Y-148015284D01*
X141569348Y-148042234D01*
X141582782Y-148070638D01*
X141593367Y-148100222D01*
X141601002Y-148130701D01*
X141605612Y-148161781D01*
X141607154Y-148193164D01*
X141607154Y-149377812D01*
X141605612Y-149409195D01*
X141601002Y-149440275D01*
X141593367Y-149470754D01*
X141582782Y-149500338D01*
X141569348Y-149528742D01*
X141553195Y-149555692D01*
X141534477Y-149580930D01*
X141513377Y-149604211D01*
X141490096Y-149625311D01*
X141464858Y-149644029D01*
X141437908Y-149660182D01*
X141409504Y-149673616D01*
X141379920Y-149684201D01*
X141349441Y-149691836D01*
X141318361Y-149696446D01*
X141286978Y-149697988D01*
X138877330Y-149697988D01*
X138845947Y-149696446D01*
X138814867Y-149691836D01*
X138784388Y-149684201D01*
X138754804Y-149673616D01*
X138726400Y-149660182D01*
X138699450Y-149644029D01*
X138674212Y-149625311D01*
X138650931Y-149604211D01*
X138629831Y-149580930D01*
X138611113Y-149555692D01*
X138594960Y-149528742D01*
X138581526Y-149500338D01*
X138570941Y-149470754D01*
X138563306Y-149440275D01*
X138558696Y-149409195D01*
X138557154Y-149377812D01*
X138557154Y-148193164D01*
X138558696Y-148161781D01*
X138563306Y-148130701D01*
X138570941Y-148100222D01*
X138581526Y-148070638D01*
X138594960Y-148042234D01*
X138611113Y-148015284D01*
X138629831Y-147990046D01*
X138650931Y-147966765D01*
X138674212Y-147945665D01*
X138699450Y-147926947D01*
X138726400Y-147910794D01*
X138754804Y-147897360D01*
X138784388Y-147886775D01*
X138814867Y-147879140D01*
X138845947Y-147874530D01*
X138877330Y-147872988D01*
X141286978Y-147872988D01*
X141318361Y-147874530D01*
X141318361Y-147874530D01*
G37*
D19*
X140082154Y-148785488D03*
D11*
G36*
X141318361Y-150849530D02*
X141349441Y-150854140D01*
X141379920Y-150861775D01*
X141409504Y-150872360D01*
X141437908Y-150885794D01*
X141464858Y-150901947D01*
X141490096Y-150920665D01*
X141513377Y-150941765D01*
X141534477Y-150965046D01*
X141553195Y-150990284D01*
X141569348Y-151017234D01*
X141582782Y-151045638D01*
X141593367Y-151075222D01*
X141601002Y-151105701D01*
X141605612Y-151136781D01*
X141607154Y-151168164D01*
X141607154Y-152352812D01*
X141605612Y-152384195D01*
X141601002Y-152415275D01*
X141593367Y-152445754D01*
X141582782Y-152475338D01*
X141569348Y-152503742D01*
X141553195Y-152530692D01*
X141534477Y-152555930D01*
X141513377Y-152579211D01*
X141490096Y-152600311D01*
X141464858Y-152619029D01*
X141437908Y-152635182D01*
X141409504Y-152648616D01*
X141379920Y-152659201D01*
X141349441Y-152666836D01*
X141318361Y-152671446D01*
X141286978Y-152672988D01*
X138877330Y-152672988D01*
X138845947Y-152671446D01*
X138814867Y-152666836D01*
X138784388Y-152659201D01*
X138754804Y-152648616D01*
X138726400Y-152635182D01*
X138699450Y-152619029D01*
X138674212Y-152600311D01*
X138650931Y-152579211D01*
X138629831Y-152555930D01*
X138611113Y-152530692D01*
X138594960Y-152503742D01*
X138581526Y-152475338D01*
X138570941Y-152445754D01*
X138563306Y-152415275D01*
X138558696Y-152384195D01*
X138557154Y-152352812D01*
X138557154Y-151168164D01*
X138558696Y-151136781D01*
X138563306Y-151105701D01*
X138570941Y-151075222D01*
X138581526Y-151045638D01*
X138594960Y-151017234D01*
X138611113Y-150990284D01*
X138629831Y-150965046D01*
X138650931Y-150941765D01*
X138674212Y-150920665D01*
X138699450Y-150901947D01*
X138726400Y-150885794D01*
X138754804Y-150872360D01*
X138784388Y-150861775D01*
X138814867Y-150854140D01*
X138845947Y-150849530D01*
X138877330Y-150847988D01*
X141286978Y-150847988D01*
X141318361Y-150849530D01*
X141318361Y-150849530D01*
G37*
D19*
X140082154Y-151760488D03*
D20*
X148250000Y-119250000D03*
D21*
X155870000Y-137030000D03*
X148250000Y-121790000D03*
X155870000Y-134490000D03*
X148250000Y-124330000D03*
X155870000Y-131950000D03*
X148250000Y-126870000D03*
X155870000Y-129410000D03*
X148250000Y-129410000D03*
X155870000Y-126870000D03*
X148250000Y-131950000D03*
X155870000Y-124330000D03*
X148250000Y-134490000D03*
X155870000Y-121790000D03*
X148250000Y-137030000D03*
X155870000Y-119250000D03*
D22*
X141836336Y-124164029D03*
D23*
X134216336Y-131784029D03*
X139296336Y-124164029D03*
X136756336Y-131784029D03*
X136756336Y-124164029D03*
X139296336Y-131784029D03*
X134216336Y-124164029D03*
X141836336Y-131784029D03*
D11*
G36*
X140178225Y-143724611D02*
X140210935Y-143729463D01*
X140243011Y-143737497D01*
X140274145Y-143748637D01*
X140304038Y-143762775D01*
X140332401Y-143779775D01*
X140358961Y-143799473D01*
X140383462Y-143821680D01*
X140405669Y-143846181D01*
X140425367Y-143872741D01*
X140442367Y-143901104D01*
X140456505Y-143930997D01*
X140467645Y-143962131D01*
X140475679Y-143994207D01*
X140480531Y-144026917D01*
X140482154Y-144059944D01*
X140482154Y-144936032D01*
X140480531Y-144969059D01*
X140475679Y-145001769D01*
X140467645Y-145033845D01*
X140456505Y-145064979D01*
X140442367Y-145094872D01*
X140425367Y-145123235D01*
X140405669Y-145149795D01*
X140383462Y-145174296D01*
X140358961Y-145196503D01*
X140332401Y-145216201D01*
X140304038Y-145233201D01*
X140274145Y-145247339D01*
X140243011Y-145258479D01*
X140210935Y-145266513D01*
X140178225Y-145271365D01*
X140145198Y-145272988D01*
X139019110Y-145272988D01*
X138986083Y-145271365D01*
X138953373Y-145266513D01*
X138921297Y-145258479D01*
X138890163Y-145247339D01*
X138860270Y-145233201D01*
X138831907Y-145216201D01*
X138805347Y-145196503D01*
X138780846Y-145174296D01*
X138758639Y-145149795D01*
X138738941Y-145123235D01*
X138721941Y-145094872D01*
X138707803Y-145064979D01*
X138696663Y-145033845D01*
X138688629Y-145001769D01*
X138683777Y-144969059D01*
X138682154Y-144936032D01*
X138682154Y-144059944D01*
X138683777Y-144026917D01*
X138688629Y-143994207D01*
X138696663Y-143962131D01*
X138707803Y-143930997D01*
X138721941Y-143901104D01*
X138738941Y-143872741D01*
X138758639Y-143846181D01*
X138780846Y-143821680D01*
X138805347Y-143799473D01*
X138831907Y-143779775D01*
X138860270Y-143762775D01*
X138890163Y-143748637D01*
X138921297Y-143737497D01*
X138953373Y-143729463D01*
X138986083Y-143724611D01*
X139019110Y-143722988D01*
X140145198Y-143722988D01*
X140178225Y-143724611D01*
X140178225Y-143724611D01*
G37*
D12*
X139582154Y-144497988D03*
D11*
G36*
X140178225Y-145774611D02*
X140210935Y-145779463D01*
X140243011Y-145787497D01*
X140274145Y-145798637D01*
X140304038Y-145812775D01*
X140332401Y-145829775D01*
X140358961Y-145849473D01*
X140383462Y-145871680D01*
X140405669Y-145896181D01*
X140425367Y-145922741D01*
X140442367Y-145951104D01*
X140456505Y-145980997D01*
X140467645Y-146012131D01*
X140475679Y-146044207D01*
X140480531Y-146076917D01*
X140482154Y-146109944D01*
X140482154Y-146986032D01*
X140480531Y-147019059D01*
X140475679Y-147051769D01*
X140467645Y-147083845D01*
X140456505Y-147114979D01*
X140442367Y-147144872D01*
X140425367Y-147173235D01*
X140405669Y-147199795D01*
X140383462Y-147224296D01*
X140358961Y-147246503D01*
X140332401Y-147266201D01*
X140304038Y-147283201D01*
X140274145Y-147297339D01*
X140243011Y-147308479D01*
X140210935Y-147316513D01*
X140178225Y-147321365D01*
X140145198Y-147322988D01*
X139019110Y-147322988D01*
X138986083Y-147321365D01*
X138953373Y-147316513D01*
X138921297Y-147308479D01*
X138890163Y-147297339D01*
X138860270Y-147283201D01*
X138831907Y-147266201D01*
X138805347Y-147246503D01*
X138780846Y-147224296D01*
X138758639Y-147199795D01*
X138738941Y-147173235D01*
X138721941Y-147144872D01*
X138707803Y-147114979D01*
X138696663Y-147083845D01*
X138688629Y-147051769D01*
X138683777Y-147019059D01*
X138682154Y-146986032D01*
X138682154Y-146109944D01*
X138683777Y-146076917D01*
X138688629Y-146044207D01*
X138696663Y-146012131D01*
X138707803Y-145980997D01*
X138721941Y-145951104D01*
X138738941Y-145922741D01*
X138758639Y-145896181D01*
X138780846Y-145871680D01*
X138805347Y-145849473D01*
X138831907Y-145829775D01*
X138860270Y-145812775D01*
X138890163Y-145798637D01*
X138921297Y-145787497D01*
X138953373Y-145779463D01*
X138986083Y-145774611D01*
X139019110Y-145772988D01*
X140145198Y-145772988D01*
X140178225Y-145774611D01*
X140178225Y-145774611D01*
G37*
D12*
X139582154Y-146547988D03*
D11*
G36*
X136928225Y-145774611D02*
X136960935Y-145779463D01*
X136993011Y-145787497D01*
X137024145Y-145798637D01*
X137054038Y-145812775D01*
X137082401Y-145829775D01*
X137108961Y-145849473D01*
X137133462Y-145871680D01*
X137155669Y-145896181D01*
X137175367Y-145922741D01*
X137192367Y-145951104D01*
X137206505Y-145980997D01*
X137217645Y-146012131D01*
X137225679Y-146044207D01*
X137230531Y-146076917D01*
X137232154Y-146109944D01*
X137232154Y-146986032D01*
X137230531Y-147019059D01*
X137225679Y-147051769D01*
X137217645Y-147083845D01*
X137206505Y-147114979D01*
X137192367Y-147144872D01*
X137175367Y-147173235D01*
X137155669Y-147199795D01*
X137133462Y-147224296D01*
X137108961Y-147246503D01*
X137082401Y-147266201D01*
X137054038Y-147283201D01*
X137024145Y-147297339D01*
X136993011Y-147308479D01*
X136960935Y-147316513D01*
X136928225Y-147321365D01*
X136895198Y-147322988D01*
X135769110Y-147322988D01*
X135736083Y-147321365D01*
X135703373Y-147316513D01*
X135671297Y-147308479D01*
X135640163Y-147297339D01*
X135610270Y-147283201D01*
X135581907Y-147266201D01*
X135555347Y-147246503D01*
X135530846Y-147224296D01*
X135508639Y-147199795D01*
X135488941Y-147173235D01*
X135471941Y-147144872D01*
X135457803Y-147114979D01*
X135446663Y-147083845D01*
X135438629Y-147051769D01*
X135433777Y-147019059D01*
X135432154Y-146986032D01*
X135432154Y-146109944D01*
X135433777Y-146076917D01*
X135438629Y-146044207D01*
X135446663Y-146012131D01*
X135457803Y-145980997D01*
X135471941Y-145951104D01*
X135488941Y-145922741D01*
X135508639Y-145896181D01*
X135530846Y-145871680D01*
X135555347Y-145849473D01*
X135581907Y-145829775D01*
X135610270Y-145812775D01*
X135640163Y-145798637D01*
X135671297Y-145787497D01*
X135703373Y-145779463D01*
X135736083Y-145774611D01*
X135769110Y-145772988D01*
X136895198Y-145772988D01*
X136928225Y-145774611D01*
X136928225Y-145774611D01*
G37*
D12*
X136332154Y-146547988D03*
D11*
G36*
X136928225Y-143724611D02*
X136960935Y-143729463D01*
X136993011Y-143737497D01*
X137024145Y-143748637D01*
X137054038Y-143762775D01*
X137082401Y-143779775D01*
X137108961Y-143799473D01*
X137133462Y-143821680D01*
X137155669Y-143846181D01*
X137175367Y-143872741D01*
X137192367Y-143901104D01*
X137206505Y-143930997D01*
X137217645Y-143962131D01*
X137225679Y-143994207D01*
X137230531Y-144026917D01*
X137232154Y-144059944D01*
X137232154Y-144936032D01*
X137230531Y-144969059D01*
X137225679Y-145001769D01*
X137217645Y-145033845D01*
X137206505Y-145064979D01*
X137192367Y-145094872D01*
X137175367Y-145123235D01*
X137155669Y-145149795D01*
X137133462Y-145174296D01*
X137108961Y-145196503D01*
X137082401Y-145216201D01*
X137054038Y-145233201D01*
X137024145Y-145247339D01*
X136993011Y-145258479D01*
X136960935Y-145266513D01*
X136928225Y-145271365D01*
X136895198Y-145272988D01*
X135769110Y-145272988D01*
X135736083Y-145271365D01*
X135703373Y-145266513D01*
X135671297Y-145258479D01*
X135640163Y-145247339D01*
X135610270Y-145233201D01*
X135581907Y-145216201D01*
X135555347Y-145196503D01*
X135530846Y-145174296D01*
X135508639Y-145149795D01*
X135488941Y-145123235D01*
X135471941Y-145094872D01*
X135457803Y-145064979D01*
X135446663Y-145033845D01*
X135438629Y-145001769D01*
X135433777Y-144969059D01*
X135432154Y-144936032D01*
X135432154Y-144059944D01*
X135433777Y-144026917D01*
X135438629Y-143994207D01*
X135446663Y-143962131D01*
X135457803Y-143930997D01*
X135471941Y-143901104D01*
X135488941Y-143872741D01*
X135508639Y-143846181D01*
X135530846Y-143821680D01*
X135555347Y-143799473D01*
X135581907Y-143779775D01*
X135610270Y-143762775D01*
X135640163Y-143748637D01*
X135671297Y-143737497D01*
X135703373Y-143729463D01*
X135736083Y-143724611D01*
X135769110Y-143722988D01*
X136895198Y-143722988D01*
X136928225Y-143724611D01*
X136928225Y-143724611D01*
G37*
D12*
X136332154Y-144497988D03*
D11*
G36*
X149346071Y-140176623D02*
X149378781Y-140181475D01*
X149410857Y-140189509D01*
X149441991Y-140200649D01*
X149471884Y-140214787D01*
X149500247Y-140231787D01*
X149526807Y-140251485D01*
X149551308Y-140273692D01*
X149573515Y-140298193D01*
X149593213Y-140324753D01*
X149610213Y-140353116D01*
X149624351Y-140383009D01*
X149635491Y-140414143D01*
X149643525Y-140446219D01*
X149648377Y-140478929D01*
X149650000Y-140511956D01*
X149650000Y-141388044D01*
X149648377Y-141421071D01*
X149643525Y-141453781D01*
X149635491Y-141485857D01*
X149624351Y-141516991D01*
X149610213Y-141546884D01*
X149593213Y-141575247D01*
X149573515Y-141601807D01*
X149551308Y-141626308D01*
X149526807Y-141648515D01*
X149500247Y-141668213D01*
X149471884Y-141685213D01*
X149441991Y-141699351D01*
X149410857Y-141710491D01*
X149378781Y-141718525D01*
X149346071Y-141723377D01*
X149313044Y-141725000D01*
X148186956Y-141725000D01*
X148153929Y-141723377D01*
X148121219Y-141718525D01*
X148089143Y-141710491D01*
X148058009Y-141699351D01*
X148028116Y-141685213D01*
X147999753Y-141668213D01*
X147973193Y-141648515D01*
X147948692Y-141626308D01*
X147926485Y-141601807D01*
X147906787Y-141575247D01*
X147889787Y-141546884D01*
X147875649Y-141516991D01*
X147864509Y-141485857D01*
X147856475Y-141453781D01*
X147851623Y-141421071D01*
X147850000Y-141388044D01*
X147850000Y-140511956D01*
X147851623Y-140478929D01*
X147856475Y-140446219D01*
X147864509Y-140414143D01*
X147875649Y-140383009D01*
X147889787Y-140353116D01*
X147906787Y-140324753D01*
X147926485Y-140298193D01*
X147948692Y-140273692D01*
X147973193Y-140251485D01*
X147999753Y-140231787D01*
X148028116Y-140214787D01*
X148058009Y-140200649D01*
X148089143Y-140189509D01*
X148121219Y-140181475D01*
X148153929Y-140176623D01*
X148186956Y-140175000D01*
X149313044Y-140175000D01*
X149346071Y-140176623D01*
X149346071Y-140176623D01*
G37*
D12*
X148750000Y-140950000D03*
D11*
G36*
X149346071Y-142226623D02*
X149378781Y-142231475D01*
X149410857Y-142239509D01*
X149441991Y-142250649D01*
X149471884Y-142264787D01*
X149500247Y-142281787D01*
X149526807Y-142301485D01*
X149551308Y-142323692D01*
X149573515Y-142348193D01*
X149593213Y-142374753D01*
X149610213Y-142403116D01*
X149624351Y-142433009D01*
X149635491Y-142464143D01*
X149643525Y-142496219D01*
X149648377Y-142528929D01*
X149650000Y-142561956D01*
X149650000Y-143438044D01*
X149648377Y-143471071D01*
X149643525Y-143503781D01*
X149635491Y-143535857D01*
X149624351Y-143566991D01*
X149610213Y-143596884D01*
X149593213Y-143625247D01*
X149573515Y-143651807D01*
X149551308Y-143676308D01*
X149526807Y-143698515D01*
X149500247Y-143718213D01*
X149471884Y-143735213D01*
X149441991Y-143749351D01*
X149410857Y-143760491D01*
X149378781Y-143768525D01*
X149346071Y-143773377D01*
X149313044Y-143775000D01*
X148186956Y-143775000D01*
X148153929Y-143773377D01*
X148121219Y-143768525D01*
X148089143Y-143760491D01*
X148058009Y-143749351D01*
X148028116Y-143735213D01*
X147999753Y-143718213D01*
X147973193Y-143698515D01*
X147948692Y-143676308D01*
X147926485Y-143651807D01*
X147906787Y-143625247D01*
X147889787Y-143596884D01*
X147875649Y-143566991D01*
X147864509Y-143535857D01*
X147856475Y-143503781D01*
X147851623Y-143471071D01*
X147850000Y-143438044D01*
X147850000Y-142561956D01*
X147851623Y-142528929D01*
X147856475Y-142496219D01*
X147864509Y-142464143D01*
X147875649Y-142433009D01*
X147889787Y-142403116D01*
X147906787Y-142374753D01*
X147926485Y-142348193D01*
X147948692Y-142323692D01*
X147973193Y-142301485D01*
X147999753Y-142281787D01*
X148028116Y-142264787D01*
X148058009Y-142250649D01*
X148089143Y-142239509D01*
X148121219Y-142231475D01*
X148153929Y-142226623D01*
X148186956Y-142225000D01*
X149313044Y-142225000D01*
X149346071Y-142226623D01*
X149346071Y-142226623D01*
G37*
D12*
X148750000Y-143000000D03*
D24*
X172385000Y-121500000D03*
X172365000Y-115500000D03*
D25*
X172485000Y-119825000D03*
X172485000Y-119175000D03*
X172485000Y-118525000D03*
X172485000Y-117875000D03*
X172485000Y-117225000D03*
D26*
X175550000Y-121900000D03*
X175550000Y-115100000D03*
D27*
X175635000Y-119685000D03*
X175635000Y-117300000D03*
M02*
