M48
;DRILL file {KiCad 5.0.0+dfsg1-2} date Mon Dec  9 14:25:03 2019
;FORMAT={-:-/ absolute / inch / decimal}
FMAT,2
INCH,TZ
T1C0.0157
T2C0.0197
T3C0.0236
T4C0.0315
T5C0.0394
%
G90
G05
M72
T1
X5.0295Y-5.1476
X5.2067Y-5.561
X5.2756Y-5.
X5.2854Y-5.0689
X5.2854Y-5.8071
X5.2854Y-5.8465
X5.2953Y-5.689
X5.3354Y-5.0787
X5.3367Y-4.9978
X5.5315Y-5.
X5.561Y-4.7736
X5.561Y-5.6693
X5.6004Y-5.0098
X5.6004Y-5.0689
X5.6102Y-6.0236
X5.6398Y-5.3445
X5.6496Y-5.6398
X5.6791Y-6.1024
X5.689Y-5.6791
X5.876Y-5.7579
X6.0039Y-4.8819
X6.0531Y-5.5217
X6.1516Y-6.0433
X6.2795Y-6.0433
X6.3287Y-4.8425
X6.3287Y-5.315
X6.3976Y-5.4528
X6.5059Y-5.561
X6.5059Y-5.8169
X6.5059Y-5.8661
X6.5846Y-5.8169
X6.6142Y-5.4232
X6.6831Y-5.2362
X6.6831Y-5.3543
T3
X5.5906Y-4.6457
X6.5945Y-4.9606
X6.6437Y-4.5571
T4
X5.8366Y-4.6949
X5.8366Y-4.7949
X5.8366Y-4.8949
X5.8366Y-4.9949
X5.8366Y-5.0949
X5.8366Y-5.1949
X5.8366Y-5.2949
X5.8366Y-5.3949
X6.1366Y-4.6949
X6.1366Y-4.7949
X6.1366Y-4.8949
X6.1366Y-4.9949
X6.1366Y-5.0949
X6.1366Y-5.1949
X6.1366Y-5.2949
X6.1366Y-5.3949
X5.2841Y-4.8883
X5.2841Y-5.1883
X5.3841Y-4.8883
X5.3841Y-5.1883
X5.4841Y-4.8883
X5.4841Y-5.1883
X5.5841Y-4.8883
X5.5841Y-5.1883
T5
X5.0378Y-5.3563
X5.0378Y-5.4563
X5.0378Y-5.5563
X5.0378Y-5.6563
X5.0378Y-5.7563
X5.0378Y-5.8563
X5.1378Y-5.3563
X5.1378Y-5.4563
X5.1378Y-5.5563
X5.1378Y-5.6563
X5.1378Y-5.7563
X5.1378Y-5.8563
X6.8996Y-4.9134
X6.8996Y-5.0134
X6.8996Y-5.1134
X6.8996Y-5.2134
X6.8996Y-5.3134
X6.8996Y-5.4134
X6.8996Y-5.5901
X6.8996Y-5.6901
X6.8996Y-5.7901
X6.8996Y-5.8901
X6.8996Y-5.9901
X6.8996Y-6.0901
X5.9184Y-6.1226
X6.0184Y-6.1226
X6.1184Y-6.1226
X6.2184Y-6.1226
X6.3184Y-6.1226
X6.4184Y-6.1226
X5.0492Y-6.122
X5.1492Y-6.122
X5.2492Y-6.122
X5.3492Y-6.122
X5.4492Y-6.122
X5.5492Y-6.122
X5.0295Y-4.5705
X5.0295Y-4.6705
X5.0295Y-4.7705
X5.0295Y-4.8705
X5.0295Y-4.9705
T2
X6.9252Y-4.5315G85X6.8976Y-4.5315
G05
X6.9252Y-4.7992G85X6.8976Y-4.7992
G05
T0
M30
